<?xml version="1.0" standalone="no"?>
<!DOCTYPE svg PUBLIC "-//W3C//DTD SVG 1.1//EN" "http://www.w3.org/Graphics/SVG/1.1/DTD/svg11.dtd" >
<svg xmlns="http://www.w3.org/2000/svg" xmlns:xlink="http://www.w3.org/1999/xlink" version="1.1">
<metadata></metadata>
<defs>
<font id="criteria_cflight" horiz-adv-x="1599" >
<font-face units-per-em="2048" ascent="1454" descent="-594" />
<missing-glyph horiz-adv-x="389" />
<glyph horiz-adv-x="0" />
<glyph horiz-adv-x="682" />
<glyph unicode=" "  horiz-adv-x="389" />
<glyph unicode="&#x09;" horiz-adv-x="389" />
<glyph unicode="&#xa0;" horiz-adv-x="389" />
<glyph unicode="!" horiz-adv-x="520" d="M152 94q0 46 30 77.5t78 31.5t78.5 -31.5t30.5 -77.5q0 -44 -30.5 -74t-78.5 -30t-78 30t-30 74zM168 1434h186l-8 -1117h-172z" />
<glyph unicode="&#x22;" horiz-adv-x="595" d="M59 1434h181l-13 -490h-155zM354 1434h183l-15 -490h-153z" />
<glyph unicode="#" horiz-adv-x="1521" d="M70 395l53 150h231l113 348h-240l49 149h238l127 392h178l-127 -392h344l127 392h178l-127 -392h238l-49 -149h-236l-112 -348h245l-55 -150h-239l-127 -395h-179l127 395h-344l-127 -395h-178l127 395h-235zM532 545h345l112 348h-344z" />
<glyph unicode="$" horiz-adv-x="1169" d="M98 475h158q17 -99 93 -141.5t235 -42.5q160 0 238.5 43t78.5 143q0 79 -47.5 114t-165.5 46l-244 27q-172 17 -253.5 90t-81.5 209q0 317 475 317q57 0 71 -2l52 186l147 -39l-49 -172q226 -71 235 -305h-153q-18 103 -87.5 149t-224.5 46q-299 0 -299 -180 q0 -75 51.5 -114.5t170.5 -51.5l247 -25q171 -19 245.5 -84.5t76.5 -195.5q6 -338 -492 -338q-51 0 -65 2l-51 -191l-148 39l47 172q-248 64 -260 299z" />
<glyph unicode="%" horiz-adv-x="1331" d="M98 1339q0 53 35 88q35 37 92 37t92 -37q37 -35 37 -88t-37 -90q-35 -37 -92 -37t-92 37t-35 90zM100 0l936 1434h193l-938 -1434h-191zM975 96q0 53 35 90t92 37t92 -37t35 -90t-35 -90q-35 -35 -92 -35t-92 35q-35 37 -35 90z" />
<glyph unicode="&#x26;" horiz-adv-x="1515" d="M100 545q0 185 97.5 321t279.5 203l-246 365h811v-154h-526l662 -979q67 88 67 219q0 94 -22 119h161q31 -28 31 -133q0 -207 -143 -344l131 -193h-184l-76 113l-6 8q-168 -121 -394 -121q-295 0 -469 162t-174 414zM279 547q0 -193 132 -306.5t359 -113.5q172 0 295 72 l-498 737q-288 -94 -288 -389z" />
<glyph unicode="'" horiz-adv-x="299" d="M59 1434h181l-13 -490h-155z" />
<glyph unicode="(" horiz-adv-x="788" d="M82 428v569q0 184 23 306.5t79 220.5q112 196 439 196h69v-166h-47q-226 0 -303 -127q-76 -125 -76 -448v-533q0 -313 76 -438t303 -125h47v-166h-69q-326 0 -439 195q-56 97 -79 216.5t-23 299.5z" />
<glyph unicode=")" horiz-adv-x="858" d="M96 -117h47q227 0 303 125t76 438v533q0 323 -76 448q-77 127 -303 127h-47v166h70q326 0 438 -196q56 -98 79.5 -221t23.5 -306v-569q0 -180 -23.5 -299.5t-79.5 -216.5q-113 -195 -438 -195h-70v166z" />
<glyph unicode="*" horiz-adv-x="1171" d="M90 989l51 162l359 -117l-2 379h176l-2 -379l358 117l53 -162l-360 -117l225 -301l-137 -100l-225 303l-226 -303l-137 100l228 301z" />
<glyph unicode="+" horiz-adv-x="1282" d="M80 637v158h479v487h164v-487h475v-158h-475v-483h-164v483h-479z" />
<glyph unicode="," horiz-adv-x="442" d="M59 -227l158 407h166l-158 -407h-166z" />
<glyph unicode="-" horiz-adv-x="751" d="M80 453v155h594v-155h-594z" />
<glyph unicode="." horiz-adv-x="376" d="M80 94q0 46 30 77.5t78 31.5t78.5 -31.5t30.5 -77.5q0 -44 -30.5 -74t-78.5 -30t-78 30t-30 74z" />
<glyph unicode="/" horiz-adv-x="946" d="M70 0l630 1434h179l-631 -1434h-178z" />
<glyph unicode="0" horiz-adv-x="1462" d="M100 717q0 334 162 538q164 209 469 209t469 -209t164 -538q0 -330 -164 -539t-469 -209q-304 0 -469 207q-162 207 -162 541zM281 717q0 -264 112 -420q115 -160 338 -160t338 160t115 420t-115 420q-114 159 -338 159t-338 -159q-112 -156 -112 -420z" />
<glyph unicode="1" horiz-adv-x="593" d="M61 1270l13 164h368v-1434h-176v1270h-205z" />
<glyph unicode="2" horiz-adv-x="1286" d="M113 930q-17 262 121 398t409 136q254 0 389 -118t135 -328q0 -136 -67 -234q-61 -93 -244 -241l-334 -269l-145 -114h780v-160h-1034v164l610 481q144 114 199 184q57 72 57 183q0 140 -87.5 214t-256.5 74q-381 0 -354 -370h-178z" />
<glyph unicode="3" horiz-adv-x="1280" d="M100 463h176q-12 -154 86.5 -241t278.5 -87q174 0 267 80.5t93 222.5q0 85 -31 148t-87 94q-49 32 -111 45q-52 14 -121 13.5t-170 -19.5v133l410 418h-713v164h918v-156l-404 -418q200 0 344 -108t144 -322q0 -198 -138 -330q-134 -131 -407 -131q-264 0 -405.5 129 t-129.5 365z" />
<glyph unicode="4" horiz-adv-x="1284" d="M61 238v161l830 1035h244v-1434h-179v238h-895zM258 399h698v873z" />
<glyph unicode="5" horiz-adv-x="1288" d="M100 463h179q-11 -157 81.5 -243.5t276.5 -86.5q373 0 373 342q0 336 -369 336q-137 0 -224 -43t-114 -106h-164v772h963v-160h-785v-424q100 106 355 106q266 0 391 -137q125 -134 125 -350q0 -238 -144 -369t-409 -131q-268 0 -407 128t-128 366z" />
<glyph unicode="6" horiz-adv-x="1296" d="M100 489q0 223 174 424l445 521h213l-406 -465q62 16 150 16q254 0 385 -143q135 -144 135 -359q0 -224 -147 -368q-146 -146 -402 -146q-255 0 -401 146t-146 374zM279 487q0 -160 98.5 -256t269.5 -96q175 0 273 95.5t98 256.5q0 158 -98.5 253.5t-272.5 95.5 q-171 0 -269.5 -96t-98.5 -253z" />
<glyph unicode="7" horiz-adv-x="1310" d="M76 1270v164h1175l-889 -1434h-194l795 1270h-887z" />
<glyph unicode="8" horiz-adv-x="1359" d="M131 395q0 136 70 232t198 139q-206 102 -206 324q0 170 126 272t361 102t361 -102t126 -272q0 -222 -206 -324q128 -41 199 -138.5t71 -232.5q0 -196 -140.5 -311t-410.5 -115q-268 0 -408.5 115t-140.5 311zM315 418q0 -142 98 -215.5t267 -73.5q171 0 267.5 72.5 t96.5 216.5q0 139 -96 209.5t-268 70.5t-268.5 -70.5t-96.5 -209.5zM367 1073q0 -119 84 -182q83 -62 229 -62t229 62q86 62 86 182q0 121 -86 180q-83 62 -229 62t-229 -62q-84 -60 -84 -180z" />
<glyph unicode="9" horiz-adv-x="1296" d="M100 950q0 223 146 369q145 145 401 145q259 0 404 -145t145 -375q0 -218 -176 -424l-442 -520h-213l405 465q-62 -16 -152 -16q-253 0 -385 141q-133 145 -133 360zM279 946q0 -157 98.5 -252.5t269.5 -95.5q174 0 272.5 95t98.5 253q0 161 -98 256.5t-273 95.5 q-171 0 -269.5 -96t-98.5 -256z" />
<glyph unicode=":" horiz-adv-x="376" d="M80 94q0 46 30 77.5t78 31.5t78.5 -31.5t30.5 -77.5q0 -44 -30.5 -74t-78.5 -30t-78 30t-30 74zM80 989q0 44 30 75.5t78 31.5t78.5 -31.5t30.5 -75.5q0 -46 -29.5 -76t-79.5 -30t-79 30t-29 76z" />
<glyph unicode=";" horiz-adv-x="475" d="M59 -227l158 407h166l-158 -407h-166zM199 989q0 44 30 75.5t78 31.5t78.5 -31.5t30.5 -75.5q0 -46 -29.5 -76t-79.5 -30t-79 30t-29 76z" />
<glyph unicode="&#x3c;" horiz-adv-x="1282" d="M80 446v168l1122 394v-168l-885 -310l885 -309v-168z" />
<glyph unicode="=" horiz-adv-x="1259" d="M80 178v158h1100v-158h-1100zM80 723v158h1100v-158h-1100z" />
<glyph unicode="&#x3e;" horiz-adv-x="1282" d="M80 53v168l883 309l-883 310v168l1122 -394v-168z" />
<glyph unicode="?" horiz-adv-x="1359" d="M100 922q-12 269 139 405.5t455 136.5q566 0 566 -467q0 -143 -61.5 -231.5t-217.5 -155.5l-78 -35q-107 -46 -141 -104q-32 -59 -29 -156h-178q-9 144 37 226q47 83 211 151l63 27q111 45 161 108t50 177q0 296 -381 296q-221 0 -324 -92t-93 -286h-179zM532 94 q0 46 30.5 77.5t80.5 31.5q48 0 78.5 -31.5t30.5 -77.5q0 -44 -30.5 -74t-78.5 -30q-50 0 -80.5 30t-30.5 74z" />
<glyph unicode="@" horiz-adv-x="1357" d="M100 532q0 234 158 400q156 164 420 164q266 0 422 -166q157 -165 157 -410q0 -256 -137 -256q-86 0 -86 105v508h-88l-18 -95l12 -45q-88 162 -293 162q-160 0 -258 -104q-96 -107 -96 -263q0 -158 98 -262t260 -104q220 0 299 190v-53q0 -63 37 -94t96 -31q51 0 82 31 q-68 -108 -197 -174t-290 -66q-265 0 -420 162q-158 166 -158 401zM406 532q0 118 67 191q68 74 191 74q121 0 187.5 -72t66.5 -193q0 -119 -66.5 -191.5t-183.5 -72.5q-122 0 -193 74q-69 72 -69 190z" />
<glyph unicode="A" d="M59 0l641 1434h199l641 -1434h-190l-97 217h-907l-96 -217h-191zM414 369h772l-385 864z" />
<glyph unicode="B" horiz-adv-x="1517" d="M152 0v1434h743q475 0 475 -381q0 -236 -219 -322q136 -35 204 -128.5t68 -223.5q0 -58 -12.5 -109t-46 -102t-86 -87t-138 -58.5t-196.5 -22.5h-792zM334 160h586q166 0 242.5 59.5t76.5 188.5q0 124 -77.5 182.5t-241.5 58.5l-586 2v-491zM334 799h540q162 0 237 55 t75 176q0 128 -75 186t-237 58h-540v-475z" />
<glyph unicode="C" horiz-adv-x="1665" d="M100 717q0 322 203 534q207 213 555 213q280 0 461.5 -135t236.5 -391h-178q-108 356 -520 356q-274 0 -424 -164q-149 -162 -149 -413q0 -252 149 -414q150 -164 424 -164q412 0 520 357h178q-55 -256 -236.5 -391.5t-461.5 -135.5q-348 0 -555 213q-203 212 -203 535z " />
<glyph unicode="D" horiz-adv-x="1624" d="M152 0v1434h643q349 0 535 -187.5t186 -529.5t-186 -529.5t-535 -187.5h-643zM334 164h448q549 0 549 553t-549 553h-448v-1106z" />
<glyph unicode="E" horiz-adv-x="1413" d="M152 0v1434h1185v-162h-1003v-494h956v-149h-956v-467h1003v-162h-1185z" />
<glyph unicode="F" horiz-adv-x="1413" d="M152 0v1434h1185v-164h-1003v-498h944v-166h-944v-606h-182z" />
<glyph unicode="G" horiz-adv-x="1679" d="M100 717q0 322 203 534q207 213 559 213q264 0 438 -130t228 -369h-180q-102 329 -482 329q-279 0 -430 -161q-151 -165 -151 -416q0 -260 155 -422q156 -164 455 -164q297 0 459 162v293h-484v145h658v-491q-226 -271 -643 -271q-369 0 -578 209q-207 213 -207 539z" />
<glyph unicode="H" horiz-adv-x="1626" d="M152 0v1434h182v-684h958v684h183v-1434h-183v592h-958v-592h-182z" />
<glyph unicode="I" horiz-adv-x="485" d="M152 0v1434h182v-1434h-182z" />
<glyph unicode="J" horiz-adv-x="1492" d="M100 535h183q0 -207 101 -301.5t337 -94.5q238 0 338 96.5t100 313.5v885h182v-885q0 -299 -150 -439.5t-470 -140.5q-319 0 -470 138t-151 428z" />
<glyph unicode="K" horiz-adv-x="1613" d="M152 0v1434h178v-1186l964 1186h211l-569 -697l618 -737h-217l-510 606l-497 -606h-178z" />
<glyph unicode="L" horiz-adv-x="1398" d="M152 0v1434h182v-1270h966v-164h-1148z" />
<glyph unicode="M" horiz-adv-x="1945" d="M152 0v1434h288l525 -1237h14l524 1237h291v-1434h-180v1231h-17l-522 -1229h-205l-522 1229h-16v-1231h-180z" />
<glyph unicode="N" horiz-adv-x="1615" d="M152 0v1434h233l885 -1217h14l-2 234v983h182v-1434h-233l-885 1217h-14l2 -234v-983h-182z" />
<glyph unicode="O" horiz-adv-x="1718" d="M100 717q0 321 205 532q206 215 553 215q349 0 555 -215q205 -211 205 -532t-205 -535q-207 -213 -555 -213q-346 0 -553 213q-205 214 -205 535zM285 717q0 -252 149 -414q150 -164 424 -164q275 0 424 162q152 166 152 416q0 247 -152 413q-150 164 -424 164t-424 -164 q-149 -162 -149 -413z" />
<glyph unicode="P" horiz-adv-x="1562" d="M152 0v1434h737q277 0 417 -136.5t140 -386.5t-140.5 -387t-416.5 -137h-555v-387h-182zM334 553h526q201 0 302.5 85.5t101.5 272.5q0 190 -101.5 274.5t-302.5 84.5h-526v-717z" />
<glyph unicode="Q" horiz-adv-x="1718" d="M100 717q0 321 205 532q206 215 553 215q349 0 555 -215q205 -211 205 -532q0 -299 -182 -508t-494 -236v-188h-164v188q-155 11 -284.5 75t-216 163.5t-133.5 230.5q-44 123 -44 258v17zM285 717q0 -232 129 -391q132 -159 364 -183v375h164v-375q235 27 363 185 q129 159 129 389q0 247 -152 413q-150 164 -424 164t-424 -164q-149 -162 -149 -413z" />
<glyph unicode="R" horiz-adv-x="1538" d="M152 0v1434h774q259 0 389.5 -124.5t130.5 -344.5q0 -348 -301 -439l305 -526h-188l-285 500q-10 -2 -51 -2h-592v-498h-182zM334 664h561q188 0 279.5 70.5t91.5 230.5q0 161 -92 233t-279 72h-561v-606z" />
<glyph unicode="S" horiz-adv-x="1456" d="M100 367h170q25 -130 139.5 -187t317.5 -57q444 0 444 283q0 121 -79 173.5t-275 73.5l-194 21q-253 25 -374.5 117.5t-121.5 273.5q0 399 608 399q569 0 596 -397h-170q-47 244 -438 244q-410 0 -410 -246q0 -115 84.5 -167t280.5 -73l192 -18q255 -25 371.5 -118 t116.5 -283q0 -437 -651 -437h-2q-578 0 -605 398z" />
<glyph unicode="T" horiz-adv-x="1470" d="M76 1270v164h1319v-164h-568v-1270h-184v1270h-567z" />
<glyph unicode="U" horiz-adv-x="1589" d="M152 582v852h182v-854q0 -441 461 -441q460 0 460 441v854h185v-852q0 -301 -163 -457t-482 -156t-481 155.5t-162 457.5z" />
<glyph unicode="V" d="M59 1434h191l551 -1233l549 1233h190l-641 -1434h-199z" />
<glyph unicode="W" horiz-adv-x="2453" d="M59 1434h189l409 -1217l478 1217h186l477 -1213l408 1213h190l-487 -1434h-205l-477 1212l-477 -1212h-205z" />
<glyph unicode="X" horiz-adv-x="1570" d="M59 0l603 717l-596 717h227l491 -598l494 598h227l-596 -717l602 -717h-225l-502 598l-499 -598h-226z" />
<glyph unicode="Y" horiz-adv-x="1601" d="M59 1434h195l543 -904h10l541 904h196l-649 -1080v-354h-184v352z" />
<glyph unicode="Z" horiz-adv-x="1556" d="M152 0v162l1030 1110h-1012v162h1235v-162l-1030 -1110h1030v-162h-1253z" />
<glyph unicode="[" horiz-adv-x="841" d="M152 -190v1826h614v-168h-430v-1491h430v-167h-614z" />
<glyph unicode="\" horiz-adv-x="946" d="M70 1434h178l631 -1434h-179z" />
<glyph unicode="]" horiz-adv-x="841" d="M76 -23h428v1491h-428v168h614v-1826h-614v167z" />
<glyph unicode="^" horiz-adv-x="1214" d="M51 739l484 695h147l481 -695l-141 -104l-414 606l-413 -606z" />
<glyph unicode="_" horiz-adv-x="833" d="M80 0h676v-158h-676v158z" />
<glyph unicode="`" horiz-adv-x="382" d="M20 1540h173l169 -338h-172z" />
<glyph unicode="a" horiz-adv-x="1271" d="M90 299q0 303 361 303h501v137q0 114 -74 165.5t-245 51.5q-160 0 -232.5 -40.5t-78.5 -122.5h-162q0 88 36.5 149t104.5 93.5t148 46.5t184 14q259 0 379.5 -84t120.5 -254v-758h-154l-18 125l18 45q-189 -201 -506 -201q-189 0 -286 84.5t-97 245.5zM268 305 q0 -194 238 -194h37q125 0 235 45q121 49 174 108v217h-473q-211 0 -211 -176z" />
<glyph unicode="b" horiz-adv-x="1388" d="M141 0v1454h178v-553l-28 -88q138 283 465 283q240 0 391 -160t151 -404q0 -243 -151 -403t-391 -160q-304 0 -437 238l-4 -207h-174zM315 532q0 -177 109 -292q110 -113 295 -113q190 0 297 113q108 114 108 292q0 179 -108 293q-107 113 -297 113q-183 0 -295 -115 q-109 -115 -109 -291z" />
<glyph unicode="c" horiz-adv-x="1284" d="M90 532q3 242 154 402q152 162 426 162q215 0 351.5 -106t172.5 -294h-172q-70 240 -352 240q-190 0 -297 -113q-109 -115 -109 -291q0 -175 109 -290q107 -113 297 -113q282 0 352 240h172q-37 -188 -173.5 -294t-350.5 -106q-273 0 -430 160q-150 160 -150 394v9z" />
<glyph unicode="d" horiz-adv-x="1388" d="M90 532q0 245 150 404q151 160 395 160q325 0 463 -283l-29 88v553h178v-1454h-174l-4 203q-64 -111 -176.5 -172.5t-257.5 -61.5q-244 0 -395 160q-150 159 -150 403zM264 532q0 -177 109 -292q107 -113 297 -113q186 0 293 113q110 113 110 292q0 178 -110 291 q-109 115 -293 115q-190 0 -297 -113q-109 -115 -109 -293z" />
<glyph unicode="e" horiz-adv-x="1308" d="M90 532q0 245 150 404q151 160 422 160q272 0 421 -168q138 -150 138 -406q0 -30 -2 -61h-951q21 -166 127.5 -258t288.5 -92q234 0 322 165h172q-56 -150 -189 -228.5t-321 -78.5q-271 0 -426 158q-152 161 -152 405zM266 580h783q-13 187 -113 281.5t-274 94.5 q-181 0 -283 -98.5t-113 -277.5z" />
<glyph unicode="f" horiz-adv-x="837" d="M76 909v156h225v102q0 168 79.5 253t254.5 85h127v-147h-107q-92 0 -133 -46.5t-41 -140.5v-106h281v-156h-281v-909h-180v909h-225z" />
<glyph unicode="g" horiz-adv-x="1339" d="M96 631q0 216 136.5 340.5t385.5 124.5q282 0 414 -172l96 141h175l-179 -272q25 -77 25 -162q0 -217 -136.5 -341t-389.5 -124q-100 0 -193 22l-135 -184h737q174 0 174 -151q0 -99 -63 -156h-137l12 43q10 33 10 57t-10 39q-19 29 -82 29h-795l-28 137l180 244 q-197 120 -197 385zM264 631q0 -156 93 -240t266 -84t265.5 84t92.5 240q0 154 -92.5 236.5t-265.5 82.5t-266 -82.5t-93 -236.5zM1057 887l2 -2l4 2h-6z" />
<glyph unicode="h" horiz-adv-x="1351" d="M141 0v1454h178v-561l-22 -74q114 277 457 277q221 0 339.5 -126t118.5 -356v-614h-178v578q0 360 -340 360q-172 0 -273.5 -96t-101.5 -277v-565h-178z" />
<glyph unicode="i" horiz-adv-x="471" d="M131 1413q0 44 28.5 72t76.5 28t76 -28t28 -72q0 -43 -28 -70.5t-76 -27.5t-76.5 28t-28.5 70zM145 0v1065h179v-1065h-179z" />
<glyph unicode="j" horiz-adv-x="471" d="M131 1415q0 42 28.5 70t76.5 28t76 -27.5t28 -70.5q0 -44 -28 -72t-76 -28t-76.5 28t-28.5 72zM145 -317v1382h181v-1382h-181z" />
<glyph unicode="k" horiz-adv-x="1325" d="M141 0v1454h178v-1063l-4 -155h7l122 153l578 676h209l-440 -510l503 -555h-213l-393 436l-377 -436h-170z" />
<glyph unicode="l" horiz-adv-x="458" d="M141 0v1454h178v-1454h-178z" />
<glyph unicode="m" horiz-adv-x="2162" d="M141 0v1065h172l6 -172l-18 -59q111 262 424 262q318 0 410 -265q114 265 442 265q224 0 334 -126.5t110 -361.5v-608h-178v571q0 181 -74.5 274t-246.5 93q-174 0 -263.5 -99t-89.5 -276v-563h-178v563q0 375 -323 375q-173 0 -261 -98.5t-88 -276.5v-563h-178z" />
<glyph unicode="n" horiz-adv-x="1351" d="M141 0v1065h172l6 -172l-22 -74q114 277 457 277q221 0 339.5 -126t118.5 -356v-614h-178v578q0 360 -340 360q-172 0 -273.5 -96t-101.5 -277v-565h-178z" />
<glyph unicode="o" horiz-adv-x="1327" d="M90 532q0 242 154 402q155 162 420 162q264 0 419 -162q156 -164 156 -402t-156 -401q-155 -162 -419 -162q-263 0 -418 162q-156 163 -156 401zM264 532q0 -180 108.5 -291.5t291.5 -111.5q184 0 292 111q107 113 107 292q0 181 -107 291q-107 113 -292 113 q-184 0 -292 -111t-108 -293z" />
<glyph unicode="p" horiz-adv-x="1388" d="M141 -295v1360h174l4 -164l-28 -88q138 283 465 283q240 0 391 -160t151 -404q0 -243 -151 -403t-391 -160q-147 0 -260.5 61.5t-176.5 174.5v-500h-178zM315 532q0 -177 109 -292q110 -113 295 -113q190 0 297 113q108 114 108 292q0 179 -108 293q-107 113 -297 113 q-183 0 -295 -115q-109 -115 -109 -291z" />
<glyph unicode="q" horiz-adv-x="1388" d="M90 532q0 245 150 404q151 160 395 160q325 0 463 -283l-29 88l4 164h174v-1360h-178v498q-135 -234 -434 -234q-244 0 -395 160q-150 159 -150 403zM264 532q0 -177 109 -292q107 -113 297 -113q186 0 293 113q110 113 110 292q0 178 -110 291q-109 115 -293 115 q-190 0 -297 -113q-109 -115 -109 -293z" />
<glyph unicode="r" horiz-adv-x="1206" d="M141 0v1065h172l6 -172l-12 -39q117 242 391 242q190 0 294 -104.5t104 -286.5v-60h-166v19q0 135 -72 204.5t-209 69.5q-155 0 -242.5 -87.5t-87.5 -266.5v-584h-178z" />
<glyph unicode="s" horiz-adv-x="1175" d="M90 293h162q17 -99 95 -143t241 -44q165 0 246 43.5t81 143.5q0 79 -50 115t-169 47l-252 24q-178 17 -261 90t-83 209q0 318 488 318q456 0 471 -330h-160q-14 101 -85.5 146.5t-231.5 45.5q-310 0 -310 -180q0 -76 52.5 -115t175.5 -51l254 -24q176 -19 252 -84.5 t81 -196.5q1 -175 -124.5 -256.5t-382.5 -81.5q-472 0 -490 324z" />
<glyph unicode="t" horiz-adv-x="864" d="M76 909v156h231v369h180v-369h291v-156h-291v-573q0 -98 42.5 -141t144.5 -43h104v-162h-137q-176 0 -255 83.5t-79 254.5v581h-231z" />
<glyph unicode="u" horiz-adv-x="1353" d="M141 451v614h178v-578q0 -360 338 -360q172 0 274.5 96.5t102.5 276.5v565h178v-1065h-172l-6 172l21 70q-117 -273 -457 -273q-221 0 -339 126t-118 356z" />
<glyph unicode="v" horiz-adv-x="1251" d="M49 1065h184l390 -864h6l389 864h184l-485 -1065h-182z" />
<glyph unicode="w" horiz-adv-x="1937" d="M49 1065h182l297 -868l351 868h182l348 -868l297 868h184l-379 -1065h-190l-352 868l-351 -868h-190z" />
<glyph unicode="x" horiz-adv-x="1220" d="M59 0l451 537l-442 528h211l331 -403l330 403h213l-440 -528l448 -537h-215l-336 414l-338 -414h-213z" />
<glyph unicode="y" horiz-adv-x="1259" d="M49 1065h187l391 -860h6l391 860h186l-626 -1360h-185l142 303l-52 103z" />
<glyph unicode="z" horiz-adv-x="1179" d="M96 0v156l766 753h-745v156h966v-156l-766 -753h777v-156h-998z" />
<glyph unicode="{" horiz-adv-x="942" d="M76 633v176h176v827h616v-168h-430v-1491h430v-167h-616v823h-176z" />
<glyph unicode="|" horiz-adv-x="487" d="M152 -205v1843h184v-1843h-184z" />
<glyph unicode="}" horiz-adv-x="942" d="M76 -23h428v1491h-428v168h614v-827h178v-176h-178v-823h-614v167z" />
<glyph unicode="~" horiz-adv-x="1392" d="M61 467v168q153 -72 351 -72q118 0 286 49q171 52 299 52q186 0 334 -68v-168q-153 72 -350 72q-121 0 -289 -51q-171 -50 -297 -50q-186 0 -334 68z" />
<glyph unicode="&#xa1;" horiz-adv-x="520" d="M152 991q0 44 30 74.5t78 30.5t78.5 -30.5t30.5 -74.5q0 -45 -30.5 -76.5t-78.5 -31.5t-78 31t-30 77zM168 -348l6 1116h172l8 -1116h-186z" />
<glyph unicode="&#xa2;" horiz-adv-x="1284" d="M90 713q3 243 154 403q154 160 426 160q43 0 53 -2l51 190l148 -39l-50 -178q130 -41 213.5 -137t108.5 -233h-172q-70 241 -352 241q-191 0 -297 -112q-109 -115 -109 -293q0 -176 109 -291q107 -113 297 -113q282 0 352 242h172q-37 -190 -173 -295.5t-351 -105.5 q-46 0 -90 6l-52 -191l-147 39l49 186q-164 61 -254.5 202t-85.5 321z" />
<glyph unicode="&#xa3;" horiz-adv-x="1343" d="M100 84l78 137q94 -56 140.5 -34.5t46.5 116.5q0 73 -27 158h-182v139l127 6l-21 43l-20 49q-14 22 -37 93q-30 90 -31 94q-1 14 -9.5 68t-8.5 81q0 201 141.5 315.5t400.5 114.5q278 0 418.5 -137t128.5 -405h-182q10 186 -84 279t-283 93q-169 0 -262.5 -74.5 t-93.5 -215.5q0 -76 39 -195l43 -102l41 -95h682v-151h-635q12 -59 12 -121q0 -152 -90 -190q250 90 428 90q168 0 363 -68v-172q-204 72 -383 72q-114 0 -250 -37t-215 -37q-148 0 -275 86z" />
<glyph unicode="&#xa4;" horiz-adv-x="1333" d="M90 96l121 121q-94 134 -94 313q0 181 94 318l-121 121l123 121l123 -117q146 96 332 96q189 0 329 -96l123 117l125 -121l-123 -121q95 -139 95 -318q0 -177 -95 -313l123 -121l-125 -121l-123 117q-140 -96 -329 -96q-186 0 -332 96l-123 -117zM287 530 q0 -162 102 -270t279 -108q174 0 276 108q105 108 105 270q0 165 -105 273q-101 110 -276 110q-178 0 -279 -110q-102 -108 -102 -273z" />
<glyph unicode="&#xa5;" horiz-adv-x="1601" d="M59 1434h195l543 -904h10l541 904h196l-551 -914h447v-137h-1276v137h446zM164 158v137h1276v-137h-545v-158h-184v158h-547z" />
<glyph unicode="&#xa6;" horiz-adv-x="487" d="M152 -205v854h184v-854h-184zM152 784v854h184v-854h-184z" />
<glyph unicode="&#xa7;" horiz-adv-x="1263" d="M100 723q0 189 183 254q-140 68 -140 217q0 155 124 238.5t368 83.5q454 0 469 -332h-160q-21 98 -89.5 141t-223.5 43q-316 0 -316 -176q0 -154 207 -166l275 -20q368 -27 368 -301q0 -184 -184 -248q139 -68 139 -219q0 -147 -125.5 -233.5t-363.5 -86.5 q-457 0 -469 332h160q19 -97 87.5 -140.5t223.5 -43.5q315 0 315 174q0 153 -207 168l-272 18q-185 13 -277 91.5t-92 205.5zM272 727q0 -80 56 -122.5t174 -49.5l260 -18q108 -7 168.5 38.5t60.5 131.5q0 79 -55.5 121t-173.5 49l-258 20q-109 7 -170.5 -38.5t-61.5 -131.5 z" />
<glyph unicode="&#xa8;" horiz-adv-x="794" d="M21 1413q0 41 26 70q29 29 78.5 29t75.5 -29q29 -29 29 -70t-29 -70q-26 -29 -75.5 -29t-78.5 29q-26 29 -26 70zM566 1413q0 41 26 70q29 29 78 29t75 -29q29 -29 29 -70t-29 -70q-26 -29 -75 -29t-78 29q-26 29 -26 70z" />
<glyph unicode="&#xa9;" horiz-adv-x="1320" d="M100 922q0 230 154 387q152 155 408 155t405 -155q154 -157 154 -387t-154 -387q-153 -156 -405 -156t-408 156q-154 157 -154 387zM254 922q0 -166 113 -279t301 -113q148 0 249.5 74.5t124.5 198.5h-129q-47 -158 -247 -158q-129 0 -205 77t-76 200t76 199.5t205 76.5 q200 0 247 -158h129q-23 124 -124.5 198.5t-249.5 74.5q-186 0 -301 -115q-113 -113 -113 -276z" />
<glyph unicode="&#xab;" horiz-adv-x="1335" d="M61 479v148l537 463l94 -125l-471 -412l471 -412l-94 -125zM643 479v148l537 463l94 -125l-473 -412l473 -412l-94 -125z" />
<glyph unicode="&#xac;" horiz-adv-x="1259" d="M80 641v158h1100v-566h-172v408h-928z" />
<glyph unicode="&#xad;" horiz-adv-x="751" d="M80 453v155h594v-155h-594z" />
<glyph unicode="&#xae;" horiz-adv-x="1320" d="M100 922q0 230 154 387q152 155 408 155t405 -155q154 -157 154 -387t-154 -387q-153 -156 -405 -156t-408 156q-154 157 -154 387zM348 565h123v207h311l115 -207h125l-129 234q119 73 119 223q0 115 -70 183.5t-205 68.5h-389v-709zM471 877v290h266q154 0 154 -147 q0 -143 -154 -143h-266z" />
<glyph unicode="&#xaf;" horiz-adv-x="716" d="M20 1382v158h676v-158h-676z" />
<glyph unicode="&#xb0;" horiz-adv-x="999" d="M90 1067q0 169 111 283q114 114 299 114q186 0 297 -114q112 -112 112 -283q0 -170 -110 -283q-111 -114 -299 -114t-299 114t-111 283zM240 1067q0 -112 69 -184q72 -72 191 -72q116 0 188 72q72 75 72 184q0 110 -72 182q-71 74 -188 74q-120 0 -191 -74 q-69 -69 -69 -182z" />
<glyph unicode="&#xb1;" horiz-adv-x="1280" d="M80 74h1118v-158h-1118v158zM80 657v158h477v488h166v-488h475v-158h-477v-483h-164v483h-477z" />
<glyph unicode="&#xb4;" horiz-adv-x="382" d="M20 1202l170 338h172l-169 -338h-173z" />
<glyph unicode="&#xb6;" horiz-adv-x="1654" d="M100 717q0 328 191 522q192 195 534 195h754v-168h-209v-1098h209v-168h-754q-325 0 -526 195q-199 196 -199 522zM946 168h238v1098h-238v-1098z" />
<glyph unicode="&#xb7;" horiz-adv-x="421" d="M102 582q0 45 30.5 76.5t78.5 31.5t78 -31t30 -77q0 -44 -30 -74.5t-78 -30.5t-78.5 30.5t-30.5 74.5z" />
<glyph unicode="&#xb8;" horiz-adv-x="430" d="M20 -197l127 226h109l-76 -131q6 2 37 2q86 0 139.5 -53.5t53.5 -139.5q0 -90 -57 -143t-150 -53q-102 0 -148 55l54 78q42 -31 81 -31q105 0 105 94q0 42 -26 69t-72 27h-177z" />
<glyph unicode="&#xbb;" horiz-adv-x="1335" d="M61 141l471 412l-471 412l95 125l536 -463v-148l-536 -463zM643 141l471 412l-471 412l94 125l537 -463v-148l-537 -463z" />
<glyph unicode="&#xbf;" horiz-adv-x="1359" d="M100 88q0 143 61.5 231.5t217.5 155.5l78 35q109 47 139 102q34 58 31 158h180q9 -140 -39 -225t-211 -152l-63 -26q-111 -45 -161 -108t-50 -177q0 -297 381 -297q221 0 324 92.5t93 286.5h179q12 -269 -139 -406t-455 -137q-566 0 -566 467zM608 991q0 44 30.5 74.5 t80.5 30.5q48 0 78 -30.5t30 -74.5q0 -46 -30 -77t-78 -31q-50 0 -80.5 31t-30.5 77z" />
<glyph unicode="&#xc0;" d="M59 0l641 1434h199l641 -1434h-190l-97 217h-907l-96 -217h-191zM414 369h772l-385 864zM545 1909h172l170 -338h-172z" />
<glyph unicode="&#xc1;" d="M59 0l641 1434h199l641 -1434h-190l-97 217h-907l-96 -217h-191zM414 369h772l-385 864zM737 1571l170 338h172l-170 -338h-172z" />
<glyph unicode="&#xc2;" d="M59 0l641 1434h199l641 -1434h-190l-97 217h-907l-96 -217h-191zM414 369h772l-385 864zM502 1571l170 338h254l170 -338h-168l-129 256l-129 -256h-168z" />
<glyph unicode="&#xc3;" d="M59 0l641 1434h199l641 -1434h-190l-97 217h-907l-96 -217h-191zM414 369h772l-385 864zM418 1739v145q76 -61 196 -61q75 0 185 45q115 47 192 47q116 0 191 -60v-143q-83 62 -197 62q-66 0 -184 -48q-110 -45 -191 -45q-119 0 -192 58z" />
<glyph unicode="&#xc4;" d="M59 0l641 1434h199l641 -1434h-190l-97 217h-907l-96 -217h-191zM414 369h772l-385 864zM420 1781.5q0 40.5 26 69.5q29 29 78.5 29t75.5 -29q29 -29 29 -69.5t-29 -69.5q-26 -29 -75.5 -29t-78.5 29q-26 29 -26 69.5zM965 1781.5q0 40.5 26 69.5q29 29 78.5 29t75.5 -29 q29 -29 29 -69t-27 -70q-29 -29 -78 -29t-78 29q-26 29 -26 69.5z" />
<glyph unicode="&#xc5;" d="M59 0l641 1434h199l641 -1434h-190l-97 217h-907l-96 -217h-191zM414 369h772l-385 864zM612 1757q0 79 52 132t135 53q85 0 136.5 -52.5t51.5 -132.5q0 -77 -52 -129.5t-136 -52.5q-83 0 -135 52.5t-52 129.5zM721 1711q23 -46 78 -40q56 -6 79.5 40t0 92.5t-79.5 41.5 q-55 5 -78 -41.5t0 -92.5z" />
<glyph unicode="&#xc6;" horiz-adv-x="2400" d="M39 0l983 1434h1305v-162h-1006v-494h956v-149h-956v-467h1006v-162h-1188v293h-701l-200 -293h-199zM545 449h594v862z" />
<glyph unicode="&#xc7;" horiz-adv-x="1665" d="M100 717q0 322 203 534q207 213 555 213q280 0 461.5 -135t236.5 -391h-178q-108 356 -520 356q-274 0 -424 -164q-149 -162 -149 -413q0 -252 149 -414q150 -164 424 -164q412 0 520 357h178q-55 -252 -231 -387t-448 -140l-41 -71q6 2 36 2q86 0 139.5 -53.5 t53.5 -139.5q0 -90 -57 -143t-150 -53q-101 0 -147 55l53 78q42 -31 82 -31q104 0 104 94q0 42 -26 69t-72 27h-176l96 170q-311 27 -493 236q-179 209 -179 508z" />
<glyph unicode="&#xc8;" horiz-adv-x="1413" d="M152 0v1434h1185v-162h-1003v-494h956v-149h-956v-467h1003v-162h-1185zM475 1909h172l170 -338h-172z" />
<glyph unicode="&#xc9;" horiz-adv-x="1413" d="M152 0v1434h1185v-162h-1003v-494h956v-149h-956v-467h1003v-162h-1185zM668 1571l170 338h172l-170 -338h-172z" />
<glyph unicode="&#xca;" horiz-adv-x="1413" d="M152 0v1434h1185v-162h-1003v-494h956v-149h-956v-467h1003v-162h-1185zM432 1571l170 338h254l170 -338h-168l-129 256l-129 -256h-168z" />
<glyph unicode="&#xcb;" horiz-adv-x="1413" d="M152 0v1434h1185v-162h-1003v-494h956v-149h-956v-467h1003v-162h-1185zM351 1781.5q0 40.5 26 69.5q29 29 78 29t75 -29q29 -29 29 -69.5t-29 -69.5q-26 -29 -75 -29t-78 29q-26 29 -26 69.5zM896 1781.5q0 40.5 26 69.5q29 29 78 29t75 -29q29 -29 29 -69.5t-29 -69.5 q-26 -29 -75 -29t-78 29q-26 29 -26 69.5z" />
<glyph unicode="&#xcc;" horiz-adv-x="485" d="M-10 1909h172l170 -338h-172zM152 0v1434h182v-1434h-182z" />
<glyph unicode="&#xcd;" horiz-adv-x="485" d="M152 0v1434h182v-1434h-182zM182 1571l170 338h172l-170 -338h-172z" />
<glyph unicode="&#xce;" horiz-adv-x="485" d="M-53 1571l170 338h254l170 -338h-168l-129 256l-129 -256h-168zM152 0v1434h182v-1434h-182z" />
<glyph unicode="&#xcf;" horiz-adv-x="485" d="M-135 1781.5q0 40.5 29 69.5q26 29 75.5 29t75.5 -29q29 -29 29 -69.5t-29 -69.5q-26 -29 -75.5 -29t-75.5 29q-29 29 -29 69.5zM152 0v1434h182v-1434h-182zM410 1781.5q0 40.5 26 69.5q29 29 78.5 29t75.5 -29q29 -29 29 -69.5t-29 -69.5q-26 -29 -75.5 -29t-78.5 29 q-26 29 -26 69.5z" />
<glyph unicode="&#xd0;" horiz-adv-x="1603" d="M0 639v158h152v637h643q349 0 535 -187.5t186 -529.5t-186 -529.5t-535 -187.5h-643v639h-152zM334 164h448q549 0 549 553t-549 553h-448v-473h260v-158h-260v-475z" />
<glyph unicode="&#xd1;" horiz-adv-x="1615" d="M152 0v1434h233l885 -1217h14l-2 234v983h182v-1434h-233l-885 1217h-14l2 -234v-983h-182zM426 1739v145q76 -61 197 -61q74 0 184 45q115 47 192 47q116 0 191 -60v-143q-83 62 -197 62q-66 0 -184 -48q-110 -45 -191 -45q-119 0 -192 58z" />
<glyph unicode="&#xd2;" horiz-adv-x="1718" d="M100 717q0 321 205 532q206 215 553 215q349 0 555 -215q205 -211 205 -532t-205 -535q-207 -213 -555 -213q-346 0 -553 213q-205 214 -205 535zM285 717q0 -252 149 -414q150 -164 424 -164q275 0 424 162q152 166 152 416q0 247 -152 413q-150 164 -424 164t-424 -164 q-149 -162 -149 -413zM604 1909h172l170 -338h-172z" />
<glyph unicode="&#xd3;" horiz-adv-x="1718" d="M100 717q0 321 205 532q206 215 553 215q349 0 555 -215q205 -211 205 -532t-205 -535q-207 -213 -555 -213q-346 0 -553 213q-205 214 -205 535zM285 717q0 -252 149 -414q150 -164 424 -164q275 0 424 162q152 166 152 416q0 247 -152 413q-150 164 -424 164t-424 -164 q-149 -162 -149 -413zM797 1571l170 338h172l-170 -338h-172z" />
<glyph unicode="&#xd4;" horiz-adv-x="1718" d="M100 717q0 321 205 532q206 215 553 215q349 0 555 -215q205 -211 205 -532t-205 -535q-207 -213 -555 -213q-346 0 -553 213q-205 214 -205 535zM285 717q0 -252 149 -414q150 -164 424 -164q275 0 424 162q152 166 152 416q0 247 -152 413q-150 164 -424 164t-424 -164 q-149 -162 -149 -413zM563 1571l170 338h254l170 -338h-168l-129 256l-129 -256h-168z" />
<glyph unicode="&#xd5;" horiz-adv-x="1718" d="M100 717q0 321 205 532q206 215 553 215q349 0 555 -215q205 -211 205 -532t-205 -535q-207 -213 -555 -213q-346 0 -553 213q-205 214 -205 535zM285 717q0 -252 149 -414q150 -164 424 -164q275 0 424 162q152 166 152 416q0 247 -152 413q-150 164 -424 164t-424 -164 q-149 -162 -149 -413zM477 1739v145q76 -61 197 -61q74 0 184 45q115 47 193 47q115 0 190 -60v-143q-83 62 -197 62q-66 0 -184 -48q-110 -45 -190 -45q-120 0 -193 58z" />
<glyph unicode="&#xd6;" horiz-adv-x="1718" d="M100 717q0 321 205 532q206 215 553 215q349 0 555 -215q205 -211 205 -532t-205 -535q-207 -213 -555 -213q-346 0 -553 213q-205 214 -205 535zM285 717q0 -252 149 -414q150 -164 424 -164q275 0 424 162q152 166 152 416q0 247 -152 413q-150 164 -424 164t-424 -164 q-149 -162 -149 -413zM482 1781.5q0 40.5 26 69.5q29 29 78.5 29t75.5 -29q29 -29 29 -69.5t-29 -69.5q-26 -29 -75.5 -29t-78.5 29q-26 29 -26 69.5zM1027 1781.5q0 40.5 26 69.5q29 29 78 29t75 -29q29 -29 29 -69.5t-29 -69.5q-26 -29 -75 -29t-78 29q-26 29 -26 69.5z " />
<glyph unicode="&#xd7;" horiz-adv-x="1220" d="M59 0l451 537l-442 528h211l331 -403l330 403h213l-440 -528l448 -537h-215l-336 414l-338 -414h-213z" />
<glyph unicode="&#xd8;" horiz-adv-x="1718" d="M100 717q0 321 205 532q206 215 553 215q302 0 498 -161l117 116l92 -92l-117 -117q170 -200 170 -493q0 -321 -205 -535q-207 -213 -555 -213q-290 0 -491 160l-115 -115l-94 90l114 115q-172 202 -172 498zM285 717q0 -221 114 -371l832 832q-143 116 -373 116 q-274 0 -424 -164q-149 -162 -149 -413zM489 252q149 -113 369 -113q275 0 424 162q152 166 152 416q0 223 -113 366z" />
<glyph unicode="&#xd9;" horiz-adv-x="1589" d="M152 582v852h182v-854q0 -441 461 -441q460 0 460 441v854h185v-852q0 -301 -163 -457t-482 -156t-481 155.5t-162 457.5zM541 1909h172l170 -338h-172z" />
<glyph unicode="&#xda;" horiz-adv-x="1589" d="M152 582v852h182v-854q0 -441 461 -441q460 0 460 441v854h185v-852q0 -301 -163 -457t-482 -156t-481 155.5t-162 457.5zM733 1571l170 338h172l-170 -338h-172z" />
<glyph unicode="&#xdb;" horiz-adv-x="1589" d="M152 582v852h182v-854q0 -441 461 -441q460 0 460 441v854h185v-852q0 -301 -163 -457t-482 -156t-481 155.5t-162 457.5zM498 1571l170 338h254l170 -338h-168l-129 256l-129 -256h-168z" />
<glyph unicode="&#xdc;" horiz-adv-x="1589" d="M152 582v852h182v-854q0 -441 461 -441q460 0 460 441v854h185v-852q0 -301 -163 -457t-482 -156t-481 155.5t-162 457.5zM416 1781.5q0 40.5 26 69.5q29 29 78.5 29t75.5 -29q29 -29 29 -69t-27 -70q-29 -29 -78 -29t-78 29q-26 29 -26 69.5zM961 1781.5q0 40.5 26 69.5 q29 29 78.5 29t75.5 -29q29 -29 29 -69.5t-29 -69.5q-26 -29 -75.5 -29t-78.5 29q-26 29 -26 69.5z" />
<glyph unicode="&#xdd;" horiz-adv-x="1601" d="M59 1434h195l543 -904h10l541 904h196l-649 -1080v-354h-184v352zM739 1571l170 338h172l-170 -338h-172z" />
<glyph unicode="&#xde;" horiz-adv-x="1556" d="M152 0v1434h184v-183h543q567 0 567 -534q0 -535 -567 -535h-543v-182h-184zM336 350h506q216 0 317 84.5t101 282.5t-101 283t-317 85h-506v-735z" />
<glyph unicode="&#xdf;" horiz-adv-x="1290" d="M141 0v1167q0 169 79.5 253.5t252.5 84.5h121v-147h-100q-92 0 -133.5 -46.5t-41.5 -140.5v-106h775v-150l-387 -370h24q71 0 136.5 -13.5t127.5 -46.5t107 -81.5t72.5 -124.5t27.5 -170q0 -211 -133.5 -323t-404.5 -112h-195v152h164q195 0 291 69t96 224q0 153 -88 221 t-262 68h-174v124l401 386h-578v-918h-178z" />
<glyph unicode="&#xe0;" horiz-adv-x="1271" d="M90 299q0 303 361 303h501v137q0 114 -74 165.5t-245 51.5q-160 0 -232.5 -40.5t-78.5 -122.5h-162q0 88 36.5 149t104.5 93.5t148 46.5t184 14q259 0 379.5 -84t120.5 -254v-758h-154l-18 125l18 45q-189 -201 -506 -201q-189 0 -286 84.5t-97 245.5zM268 305 q0 -194 238 -194h37q125 0 235 45q121 49 174 108v217h-473q-211 0 -211 -176zM406 1540h172l170 -338h-173z" />
<glyph unicode="&#xe1;" horiz-adv-x="1271" d="M90 299q0 303 361 303h501v137q0 114 -74 165.5t-245 51.5q-160 0 -232.5 -40.5t-78.5 -122.5h-162q0 88 36.5 149t104.5 93.5t148 46.5t184 14q259 0 379.5 -84t120.5 -254v-758h-154l-18 125l18 45q-189 -201 -506 -201q-189 0 -286 84.5t-97 245.5zM268 305 q0 -194 238 -194h37q125 0 235 45q121 49 174 108v217h-473q-211 0 -211 -176zM600 1202l170 338h172l-170 -338h-172z" />
<glyph unicode="&#xe2;" horiz-adv-x="1271" d="M90 299q0 303 361 303h501v137q0 114 -74 165.5t-245 51.5q-160 0 -232.5 -40.5t-78.5 -122.5h-162q0 88 36.5 149t104.5 93.5t148 46.5t184 14q259 0 379.5 -84t120.5 -254v-758h-154l-18 125l18 45q-189 -201 -506 -201q-189 0 -286 84.5t-97 245.5zM268 305 q0 -194 238 -194h37q125 0 235 45q121 49 174 108v217h-473q-211 0 -211 -176zM365 1202l170 338h253l170 -338h-167l-129 256l-130 -256h-167z" />
<glyph unicode="&#xe3;" horiz-adv-x="1271" d="M90 299q0 303 361 303h501v137q0 114 -74 165.5t-245 51.5q-160 0 -232.5 -40.5t-78.5 -122.5h-162q0 88 36.5 149t104.5 93.5t148 46.5t184 14q259 0 379.5 -84t120.5 -254v-758h-154l-18 125l18 45q-189 -201 -506 -201q-189 0 -286 84.5t-97 245.5zM268 305 q0 -194 238 -194h37q125 0 235 45q121 49 174 108v217h-473q-211 0 -211 -176zM281 1370v146q77 -62 196 -62q75 0 185 45q115 47 192 47q116 0 190 -59v-144q-83 62 -196 62q-69 0 -184 -47q-110 -45 -191 -45q-120 0 -192 57z" />
<glyph unicode="&#xe4;" horiz-adv-x="1271" d="M90 299q0 303 361 303h501v137q0 114 -74 165.5t-245 51.5q-160 0 -232.5 -40.5t-78.5 -122.5h-162q0 88 36.5 149t104.5 93.5t148 46.5t184 14q259 0 379.5 -84t120.5 -254v-758h-154l-18 125l18 45q-189 -201 -506 -201q-189 0 -286 84.5t-97 245.5zM268 305 q0 -194 238 -194h37q125 0 235 45q121 49 174 108v217h-473q-211 0 -211 -176zM283 1413q0 41 26 70q29 29 78.5 29t75.5 -29q29 -29 29 -69.5t-27 -70.5q-29 -29 -78 -29t-78 29q-26 29 -26 70zM828 1413q0 41 26 70q29 29 78.5 29t75.5 -29q29 -29 29 -70t-29 -70 q-26 -29 -75.5 -29t-78.5 29q-26 29 -26 70z" />
<glyph unicode="&#xe5;" horiz-adv-x="1271" d="M90 299q0 303 361 303h501v137q0 114 -74 165.5t-245 51.5q-160 0 -232.5 -40.5t-78.5 -122.5h-162q0 88 36.5 149t104.5 93.5t148 46.5t184 14q259 0 379.5 -84t120.5 -254v-758h-154l-18 125l18 45q-189 -201 -506 -201q-189 0 -286 84.5t-97 245.5zM268 305 q0 -194 238 -194h37q125 0 235 45q121 49 174 108v217h-473q-211 0 -211 -176zM473 1389q0 79 51.5 131.5t134.5 52.5q85 0 137 -52.5t52 -131.5q0 -77 -52.5 -130t-136.5 -53q-83 0 -134.5 53t-51.5 130zM581 1343q23 -46 78 -40q56 -6 79.5 40t0 92.5t-79.5 41.5 q-55 5 -78 -41.5t0 -92.5z" />
<glyph unicode="&#xe6;" horiz-adv-x="2172" d="M90 283q0 144 97.5 224.5t293.5 80.5h471v149q0 117 -72 168t-247 51q-165 0 -230 -41q-64 -42 -84 -122h-159q21 303 479 303q361 0 444 -183q157 183 443 183q273 0 422 -168q153 -166 135 -467h-950q21 -167 127 -258.5t288 -91.5q238 0 320 165h174 q-56 -150 -189 -228.5t-321 -78.5q-356 0 -506 264q-82 -127 -221 -195.5t-318 -68.5q-191 0 -294 82.5t-103 231.5zM268 291q0 -176 240 -176q166 0 287 80q120 82 157 190v74h-471q-106 0 -159.5 -45t-53.5 -123zM1130 580h783q-13 187 -113 281.5t-274 94.5 q-181 0 -283 -98.5t-113 -277.5z" />
<glyph unicode="&#xe7;" horiz-adv-x="1284" d="M90 532q3 242 154 402q152 162 426 162q215 0 351.5 -106t172.5 -294h-172q-70 240 -352 240q-190 0 -297 -113q-109 -115 -109 -291q0 -175 109 -290q107 -113 297 -113q282 0 352 240h172q-37 -187 -170.5 -293t-341.5 -107l-41 -71q6 2 37 2q86 0 139 -53.5t53 -139.5 q0 -90 -56.5 -143t-149.5 -53q-102 0 -148 55l53 78q42 -31 82 -31q105 0 105 94q0 42 -26.5 69t-72.5 27h-176l97 172q-231 27 -363 183q-128 155 -125 374z" />
<glyph unicode="&#xe8;" horiz-adv-x="1308" d="M90 532q0 245 150 404q151 160 422 160q272 0 421 -168q154 -167 136 -467h-951q21 -166 127.5 -258t288.5 -92q234 0 322 165h172q-56 -150 -189 -228.5t-321 -78.5q-271 0 -426 158q-152 161 -152 405zM266 580h783q-13 187 -113 281.5t-274 94.5q-181 0 -283 -98.5 t-113 -277.5zM401 1540h172l170 -338h-172z" />
<glyph unicode="&#xe9;" horiz-adv-x="1308" d="M90 532q0 245 150 404q151 160 422 160q272 0 421 -168q154 -167 136 -467h-951q21 -166 127.5 -258t288.5 -92q234 0 322 165h172q-56 -150 -189 -228.5t-321 -78.5q-271 0 -426 158q-152 161 -152 405zM266 580h783q-13 187 -113 281.5t-274 94.5q-181 0 -283 -98.5 t-113 -277.5zM594 1202l170 338h172l-170 -338h-172z" />
<glyph unicode="&#xea;" horiz-adv-x="1308" d="M90 532q0 245 150 404q151 160 422 160q272 0 421 -168q154 -167 136 -467h-951q21 -166 127.5 -258t288.5 -92q234 0 322 165h172q-56 -150 -189 -228.5t-321 -78.5q-271 0 -426 158q-152 161 -152 405zM266 580h783q-13 187 -113 281.5t-274 94.5q-181 0 -283 -98.5 t-113 -277.5zM358 1202l170 338h254l170 -338h-168l-129 256l-129 -256h-168z" />
<glyph unicode="&#xeb;" horiz-adv-x="1308" d="M90 532q0 245 150 404q151 160 422 160q272 0 421 -168q154 -167 136 -467h-951q21 -166 127.5 -258t288.5 -92q234 0 322 165h172q-56 -150 -189 -228.5t-321 -78.5q-271 0 -426 158q-152 161 -152 405zM266 580h783q-13 187 -113 281.5t-274 94.5q-181 0 -283 -98.5 t-113 -277.5zM277 1413q0 41 26 70q29 29 78.5 29t75.5 -29q29 -29 29 -70t-29 -70q-26 -29 -75.5 -29t-78.5 29q-26 29 -26 70zM822 1413q0 41 26 70q29 29 78 29t75 -29q29 -29 29 -70t-29 -70q-26 -29 -75 -29t-78 29q-26 29 -26 70z" />
<glyph unicode="&#xec;" horiz-adv-x="438" d="M-35 1540h172l170 -338h-172zM131 0v1065h178v-1065h-178z" />
<glyph unicode="&#xed;" horiz-adv-x="438" d="M131 0v1065h178v-1065h-178zM158 1202l170 338h172l-170 -338h-172z" />
<glyph unicode="&#xee;" horiz-adv-x="438" d="M-78 1202l170 338h254l170 -338h-168l-129 256l-129 -256h-168zM131 0v1065h178v-1065h-178z" />
<glyph unicode="&#xef;" horiz-adv-x="438" d="M-160 1413q0 41 29 70q26 29 75.5 29t75.5 -29q29 -29 29 -70t-29 -70q-26 -29 -75.5 -29t-75.5 29q-29 29 -29 70zM131 0v1065h178v-1065h-178zM386 1413q0 41 26 70q29 29 78 29t75 -29q29 -29 29 -70t-29 -70q-26 -29 -75 -29t-78 29q-26 29 -26 70z" />
<glyph unicode="&#xf0;" horiz-adv-x="1339" d="M90 539q0 239 152 397q154 160 420 160q90 0 174 -23l-183 230h-448v131h344l-129 163h190l131 -163h369v-131h-264l174 -220q128 -157 179.5 -285.5t51.5 -260.5q0 -244 -155 -406t-426 -162q-270 0 -426 164q-154 168 -154 406zM268 532q0 -175 107 -288 q108 -111 295 -111q185 0 293 111q108 114 108 288q0 176 -108 287q-107 113 -293 113q-188 0 -295 -113q-107 -110 -107 -287z" />
<glyph unicode="&#xf1;" horiz-adv-x="1351" d="M141 0v1065h172l6 -172l-22 -74q114 277 457 277q221 0 339.5 -126t118.5 -356v-614h-178v578q0 360 -340 360q-172 0 -273.5 -96t-101.5 -277v-565h-178zM295 1370v146q77 -62 197 -62q74 0 184 45q115 47 192 47q117 0 191 -59v-144q-83 62 -197 62q-69 0 -184 -47 q-110 -45 -191 -45q-120 0 -192 57z" />
<glyph unicode="&#xf2;" horiz-adv-x="1327" d="M90 532q0 242 154 402q155 162 420 162q264 0 419 -162q156 -164 156 -402t-156 -401q-155 -162 -419 -162q-263 0 -418 162q-156 163 -156 401zM264 532q0 -180 108.5 -291.5t291.5 -111.5q184 0 292 111q107 113 107 292q0 181 -107 291q-107 113 -292 113 q-184 0 -292 -111t-108 -293zM410 1540h172l170 -338h-172z" />
<glyph unicode="&#xf3;" horiz-adv-x="1327" d="M90 532q0 242 154 402q155 162 420 162q264 0 419 -162q156 -164 156 -402t-156 -401q-155 -162 -419 -162q-263 0 -418 162q-156 163 -156 401zM264 532q0 -180 108.5 -291.5t291.5 -111.5q184 0 292 111q107 113 107 292q0 181 -107 291q-107 113 -292 113 q-184 0 -292 -111t-108 -293zM602 1202l170 338h172l-170 -338h-172z" />
<glyph unicode="&#xf4;" horiz-adv-x="1327" d="M90 532q0 242 154 402q155 162 420 162q264 0 419 -162q156 -164 156 -402t-156 -401q-155 -162 -419 -162q-263 0 -418 162q-156 163 -156 401zM264 532q0 -180 108.5 -291.5t291.5 -111.5q184 0 292 111q107 113 107 292q0 181 -107 291q-107 113 -292 113 q-184 0 -292 -111t-108 -293zM367 1202l170 338h254l170 -338h-168l-129 256l-129 -256h-168z" />
<glyph unicode="&#xf5;" horiz-adv-x="1327" d="M90 532q0 242 154 402q155 162 420 162q264 0 419 -162q156 -164 156 -402t-156 -401q-155 -162 -419 -162q-263 0 -418 162q-156 163 -156 401zM264 532q0 -180 108.5 -291.5t291.5 -111.5q184 0 292 111q107 113 107 292q0 181 -107 291q-107 113 -292 113 q-184 0 -292 -111t-108 -293zM283 1370v146q77 -62 196 -62q75 0 185 45q115 47 192 47q117 0 191 -59v-144q-83 62 -197 62q-69 0 -184 -47q-110 -45 -191 -45q-120 0 -192 57z" />
<glyph unicode="&#xf6;" horiz-adv-x="1327" d="M90 532q0 242 154 402q155 162 420 162q264 0 419 -162q156 -164 156 -402t-156 -401q-155 -162 -419 -162q-263 0 -418 162q-156 163 -156 401zM264 532q0 -180 108.5 -291.5t291.5 -111.5q184 0 292 111q107 113 107 292q0 181 -107 291q-107 113 -292 113 q-184 0 -292 -111t-108 -293zM285 1413q0 41 26 70q29 29 78.5 29t75.5 -29q29 -29 29 -69.5t-27 -70.5q-29 -29 -78 -29t-78 29q-26 29 -26 70zM830 1413q0 41 26 70q29 29 78.5 29t75.5 -29q29 -29 29 -70t-29 -70q-26 -29 -75.5 -29t-78.5 29q-26 29 -26 70z" />
<glyph unicode="&#xf7;" horiz-adv-x="1259" d="M80 453v155h1100v-155h-1100zM532 33q0 41 28 68.5t71 27.5q42 0 69 -27t27 -69q0 -39 -27 -66.5t-69 -27.5t-70.5 27.5t-28.5 66.5zM532 1032q0 39 28.5 66.5t70.5 27.5t69 -27.5t27 -66.5q0 -42 -27 -69t-69 -27q-43 0 -71 27.5t-28 68.5z" />
<glyph unicode="&#xf8;" horiz-adv-x="1337" d="M90 532q0 242 154 402q155 162 420 162q221 0 370 -119l72 72l82 -82l-70 -70q121 -154 121 -365q0 -238 -156 -401q-155 -162 -419 -162q-218 0 -361 113l-65 -66l-84 80l65 66q-129 150 -129 370zM264 532q0 -142 74 -251l577 577q-104 78 -251 78q-184 0 -292 -111 t-108 -293zM420 199q98 -70 244 -70q184 0 291.5 110.5t107.5 292.5q0 142 -68 242z" />
<glyph unicode="&#xf9;" horiz-adv-x="1353" d="M141 451v614h178v-578q0 -360 338 -360q172 0 274.5 96.5t102.5 276.5v565h178v-1065h-172l-6 172l21 70q-117 -273 -457 -273q-221 0 -339 126t-118 356zM426 1540h172l170 -338h-172z" />
<glyph unicode="&#xfa;" horiz-adv-x="1353" d="M141 451v614h178v-578q0 -360 338 -360q172 0 274.5 96.5t102.5 276.5v565h178v-1065h-172l-6 172l21 70q-117 -273 -457 -273q-221 0 -339 126t-118 356zM621 1202l170 338h172l-170 -338h-172z" />
<glyph unicode="&#xfb;" horiz-adv-x="1353" d="M141 451v614h178v-578q0 -360 338 -360q172 0 274.5 96.5t102.5 276.5v565h178v-1065h-172l-6 172l21 70q-117 -273 -457 -273q-221 0 -339 126t-118 356zM385 1202l170 338h254l170 -338h-168l-129 256l-129 -256h-168z" />
<glyph unicode="&#xfc;" horiz-adv-x="1353" d="M141 451v614h178v-578q0 -360 338 -360q172 0 274.5 96.5t102.5 276.5v565h178v-1065h-172l-6 172l21 70q-117 -273 -457 -273q-221 0 -339 126t-118 356zM304 1413q0 41 26 70q29 29 78 29t75 -29q29 -29 29 -70t-29 -70q-26 -29 -75 -29t-78 29q-26 29 -26 70z M848 1413q0 41 26 70q29 29 78.5 29t75.5 -29q29 -29 29 -70t-29 -70q-26 -29 -75.5 -29t-78.5 29q-26 29 -26 70z" />
<glyph unicode="&#xfd;" horiz-adv-x="1259" d="M49 1065h187l391 -860h6l391 860h186l-626 -1360h-185l142 303l-52 103zM567 1202l170 338h172l-170 -338h-172z" />
<glyph unicode="&#xfe;" horiz-adv-x="1388" d="M141 -295v1749h178v-553l-28 -88q138 283 465 283q240 0 391 -160t151 -404q0 -243 -151 -403t-391 -160q-147 0 -260.5 61.5t-176.5 174.5v-500h-178zM315 532q0 -177 109 -292q110 -113 295 -113q190 0 297 113q108 114 108 292q0 179 -108 293q-107 113 -297 113 q-183 0 -295 -115q-109 -115 -109 -291z" />
<glyph unicode="&#xff;" horiz-adv-x="1259" d="M49 1065h187l391 -860h6l391 860h186l-626 -1360h-185l142 303l-52 103zM253 1413q0 41 26 70q29 29 78 29t75 -29q29 -29 29 -70t-29 -70q-26 -29 -75 -29t-78 29q-26 29 -26 70zM797 1413q0 41 26 70q29 29 78.5 29t75.5 -29q29 -29 29 -69.5t-27 -70.5 q-29 -29 -78 -29t-78 29q-26 29 -26 70z" />
<glyph unicode="&#x152;" horiz-adv-x="2699" d="M100 717q0 321 205 532q206 215 553 215q372 0 580 -239v209h1188v-162h-1004v-494h956v-149h-956v-467h1004v-162h-1188v209q-208 -240 -580 -240q-346 0 -553 213q-205 214 -205 535zM285 717q0 -252 149 -414q150 -164 424 -164q275 0 424 162q152 166 152 416 q0 247 -152 413q-150 164 -424 164t-424 -164q-149 -162 -149 -413z" />
<glyph unicode="&#x153;" horiz-adv-x="2283" d="M90 532q0 242 154 402q155 162 420 162q162 0 287.5 -63.5t199.5 -180.5q151 244 485 244q273 0 422 -168q153 -166 135 -467h-950q21 -166 127.5 -258t288.5 -92q237 0 319 165h174q-56 -150 -189 -228.5t-321 -78.5q-340 0 -491 244q-160 -244 -487 -244 q-263 0 -418 162q-156 163 -156 401zM264 532q0 -180 108.5 -291.5t291.5 -111.5q184 0 292 111q107 113 107 292q0 181 -107 291q-107 113 -292 113q-184 0 -292 -111t-108 -293zM1241 580h782q-13 187 -113 281.5t-274 94.5q-181 0 -282.5 -98.5t-112.5 -277.5z" />
<glyph unicode="&#x178;" horiz-adv-x="1601" d="M59 1434h195l543 -904h10l541 904h196l-649 -1080v-354h-184v352zM423 1781.5q0 40.5 26 69.5q29 29 78 29t75 -29q29 -29 29 -69.5t-29 -69.5q-26 -29 -75 -29t-78 29q-26 29 -26 69.5zM967 1781.5q0 40.5 26 69.5q29 29 78.5 29t75.5 -29q29 -29 29 -69t-27 -70 q-29 -29 -78 -29t-78 29q-26 29 -26 69.5z" />
<glyph unicode="&#x2c6;" horiz-adv-x="634" d="M20 1202l170 338h254l170 -338h-168l-129 256l-129 -256h-168z" />
<glyph unicode="&#x2dc;" horiz-adv-x="804" d="M20 1370v146q77 -62 197 -62q74 0 184 45q115 47 193 47q116 0 190 -59v-144q-83 62 -196 62q-72 0 -187 -47q-110 -45 -188 -45q-121 0 -193 57z" />
<glyph unicode="&#x2000;" horiz-adv-x="971" />
<glyph unicode="&#x2001;" horiz-adv-x="1942" />
<glyph unicode="&#x2002;" horiz-adv-x="971" />
<glyph unicode="&#x2003;" horiz-adv-x="1942" />
<glyph unicode="&#x2004;" horiz-adv-x="647" />
<glyph unicode="&#x2005;" horiz-adv-x="485" />
<glyph unicode="&#x2006;" horiz-adv-x="323" />
<glyph unicode="&#x2007;" horiz-adv-x="323" />
<glyph unicode="&#x2008;" horiz-adv-x="242" />
<glyph unicode="&#x2009;" horiz-adv-x="388" />
<glyph unicode="&#x200a;" horiz-adv-x="107" />
<glyph unicode="&#x2010;" horiz-adv-x="751" d="M80 453v155h594v-155h-594z" />
<glyph unicode="&#x2011;" horiz-adv-x="751" d="M80 453v155h594v-155h-594z" />
<glyph unicode="&#x2012;" horiz-adv-x="751" d="M80 453v155h594v-155h-594z" />
<glyph unicode="&#x2013;" horiz-adv-x="1312" d="M80 453v155h1155v-155h-1155z" />
<glyph unicode="&#x2014;" horiz-adv-x="1705" d="M80 453v155h1548v-155h-1548z" />
<glyph unicode="&#x2018;" horiz-adv-x="409" d="M100 1245v10q0 61 36 116t87 79l-2 -121q50 -5 79.5 -33.5t29.5 -72.5q0 -48 -31 -78.5t-80 -30.5q-54 0 -86.5 37t-32.5 94z" />
<glyph unicode="&#x2019;" horiz-adv-x="409" d="M80 1343q0 45 30.5 76t79.5 31q54 0 86.5 -37t32.5 -92v-10q0 -61 -36 -116t-87 -81l2 123q-50 2 -79 30.5t-29 75.5z" />
<glyph unicode="&#x201a;" horiz-adv-x="348" d="M59 94q0 48 31 78.5t80 30.5q54 0 86.5 -37t32.5 -94v-11q0 -61 -36 -115.5t-87 -78.5l2 121q-50 5 -79.5 33.5t-29.5 72.5z" />
<glyph unicode="&#x201c;" horiz-adv-x="735" d="M100 1245v10q0 61 36 116t87 79l-2 -121q50 -5 79.5 -33.5t29.5 -72.5q0 -48 -31 -78.5t-80 -30.5q-54 0 -86.5 37t-32.5 94zM426 1245v10q0 61 36 116t87 79l-2 -121q50 -5 80 -33.5t30 -72.5q0 -47 -31.5 -78t-80.5 -31q-54 0 -86.5 37t-32.5 94z" />
<glyph unicode="&#x201d;" horiz-adv-x="735" d="M80 1343q0 45 30.5 76t79.5 31q54 0 86.5 -37t32.5 -92v-10q0 -61 -36 -116t-87 -81l2 123q-50 2 -79 30.5t-29 75.5zM406 1343q0 45 31.5 76t78.5 31q54 0 87.5 -37t33.5 -92v-10q0 -61 -36 -116t-87 -81l2 123q-49 1 -79.5 31t-30.5 75z" />
<glyph unicode="&#x201e;" horiz-adv-x="673" d="M59 94q0 48 31 78.5t80 30.5q54 0 86.5 -37t32.5 -94v-11q0 -61 -36 -115.5t-87 -78.5l2 121q-50 5 -79.5 33.5t-29.5 72.5zM385 94q0 47 32 78t79 31q54 0 87 -37t33 -94v-11q0 -61 -35.5 -115.5t-86.5 -78.5l2 121q-50 5 -80.5 33.5t-30.5 72.5z" />
<glyph unicode="&#x2022;" horiz-adv-x="677" d="M222 507q-34 68 0 136.5t116 63.5q84 5 119 -63t0 -136.5t-119 -63.5q-82 -5 -116 63z" />
<glyph unicode="&#x2026;" horiz-adv-x="1071" d="M80 94q0 46 30 77.5t78 31.5t78.5 -31.5t30.5 -77.5q0 -44 -30.5 -74t-78.5 -30t-78 30t-30 74zM428 94q0 46 30.5 77.5t78.5 31.5t78 -31.5t30 -77.5q0 -44 -30 -74t-78 -30t-78.5 30t-30.5 74zM774 94q0 46 30.5 77.5t80.5 31.5q48 0 78 -31.5t30 -77.5q0 -44 -30 -74 t-78 -30q-50 0 -80.5 30t-30.5 74z" />
<glyph unicode="&#x202f;" horiz-adv-x="388" />
<glyph unicode="&#x2039;" horiz-adv-x="753" d="M61 479v148l537 463l94 -125l-471 -412l471 -412l-94 -125z" />
<glyph unicode="&#x203a;" horiz-adv-x="753" d="M61 141l471 412l-471 412l95 125l536 -463v-148l-536 -463z" />
<glyph unicode="&#x205f;" horiz-adv-x="485" />
<glyph unicode="&#x20ac;" horiz-adv-x="1789" d="M100 535v137l1069 2v-137l-737 -2q48 -184 191 -290t360 -106q410 0 518 357h178q-55 -256 -235.5 -391.5t-460.5 -135.5q-301 0 -494 156q-191 154 -247 410h-142zM100 758v137h142q53 255 247 412q195 157 494 157q280 0 460.5 -135t235.5 -391h-178q-108 356 -518 356 q-218 0 -361.5 -105.5t-191.5 -291.5l739 2v-137z" />
<glyph unicode="&#x2122;" horiz-adv-x="1832" d="M76 1188v112h145v134h127v-134h180v-112h-180v-314q0 -55 28.5 -75.5t98.5 -20.5h53v-119h-98q-209 0 -209 205v324h-145zM643 666v634h127v-81l-18 -60q68 160 237 160t215 -150q64 150 242 150q248 0 248 -272v-381h-129v374q0 160 -152 160q-82 0 -131 -50t-49 -122 v-362h-129v374q0 74 -39 117t-115 43q-82 0 -131 -50t-49 -122v-362h-127z" />
<glyph unicode="&#x25fc;" horiz-adv-x="1064" d="M0 0v1065h1065v-1065h-1065z" />
</font>
</defs>
</svg>
