<?xml version="1.0" standalone="no"?>
<!DOCTYPE svg PUBLIC "-//W3C//DTD SVG 1.1//EN" "http://www.w3.org/Graphics/SVG/1.1/DTD/svg11.dtd" >
<svg xmlns="http://www.w3.org/2000/svg" xmlns:xlink="http://www.w3.org/1999/xlink" version="1.1">
<metadata></metadata>
<defs>
<font id="criteria_cfextrabold" horiz-adv-x="1288" >
<font-face units-per-em="2048" ascent="1454" descent="-594" />
<missing-glyph horiz-adv-x="389" />
<glyph horiz-adv-x="0" />
<glyph horiz-adv-x="682" />
<glyph unicode=" "  horiz-adv-x="389" />
<glyph unicode="&#x09;" horiz-adv-x="389" />
<glyph unicode="&#xa0;" horiz-adv-x="389" />
<glyph unicode="!" horiz-adv-x="632" d="M116 184q0 82 56 138q54 57 145 57q93 0 144 -57q55 -55 55.5 -137.5t-53.5 -139.5q-55 -55 -146 -55q-90 0 -145 55q-56 57 -56 139zM125 1434h379l-10 -955h-359z" />
<glyph unicode="&#x22;" horiz-adv-x="862" d="M25 1434h350l-19 -664h-313zM489 1434h349l-17 -664h-315z" />
<glyph unicode="#" horiz-adv-x="1751" d="M35 295l96 303h205l78 242h-203l94 303h207l94 291h371l-94 -291h262l94 291h369l-95 -291h203l-96 -303h-205l-78 -242h203l-94 -303h-207l-94 -295h-369l94 295h-262l-94 -295h-371l95 295h-203zM707 598h262l78 242h-263z" />
<glyph unicode="$" horiz-adv-x="1171" d="M68 500h325q7 -52 53 -72t138 -20q93 0 130.5 18.5t37.5 58.5q0 64 -99 76l-237 23q-340 27 -340 321q0 179 122.5 268.5t376.5 90.5l60 217l295 -76l-51 -188q179 -75 194 -308h-323q-15 86 -170 86q-154 0 -154 -75q0 -67 100 -76l234 -23q179 -18 263 -90.5t83 -226.5 q0 -361 -516 -367l-60 -221l-294 76l49 186q-208 84 -217 322z" />
<glyph unicode="%" horiz-adv-x="1343" d="M66 0l823 1434h389l-823 -1434h-389zM68 1237q0 98 64.5 163.5t168.5 65.5q106 0 170 -65t64 -164t-64 -164t-170 -65q-104 0 -168.5 65.5t-64.5 163.5zM809 199q0 100 64 164.5t171 64.5q104 0 169 -65t65 -164q0 -98 -65 -163t-169 -65q-107 0 -171 64.5t-64 163.5z " />
<glyph unicode="&#x26;" horiz-adv-x="1617" d="M66 569q0 169 85 299t236 197l-246 369h977v-318h-395l442 -663q33 59 33 131q0 103 -41 180h344q51 -74 51 -211q0 -250 -180 -412l115 -172h-371l-59 88q-113 -88 -322 -88q-297 0 -485 170q-184 169 -184 430zM440 571q0 -133 92.5 -209.5t266.5 -76.5q63 0 102 8 l-334 502q-127 -68 -127 -224z" />
<glyph unicode="'" horiz-adv-x="399" d="M25 1434h350l-19 -664h-313z" />
<glyph unicode="(" horiz-adv-x="972" d="M131 428v569q0 170 30 295.5t97 223.5q141 204 502 204h133v-338h-113q-166 0 -219 -96q-51 -92 -51 -297v-553q0 -200 51 -289q53 -92 219 -92h113v-338h-133q-360 0 -502 205q-127 185 -127 506z" />
<glyph unicode=")" horiz-adv-x="958" d="M80 55h113q164 0 217 92q51 89 51 289v553q0 105 -9 167.5t-34 115.5q-51 110 -225 110h-113v338h133q362 0 500 -204q68 -98 98.5 -223.5t30.5 -295.5v-569q0 -164 -30.5 -286.5t-98.5 -219.5q-139 -205 -500 -205h-133v338z" />
<glyph unicode="*" horiz-adv-x="1351" d="M55 932l111 340l326 -111l-3 344h373l-2 -344l328 111l108 -340l-333 -107l213 -278l-291 -211l-209 285l-207 -285l-293 211l213 278z" />
<glyph unicode="+" horiz-adv-x="1411" d="M47 553v326h488v495h342l2 -495h483v-326h-483l2 -498h-346v498h-488z" />
<glyph unicode="," horiz-adv-x="600" d="M25 -199l208 578h340l-208 -578h-340z" />
<glyph unicode="-" horiz-adv-x="868" d="M45 373v323h778v-323h-778z" />
<glyph unicode="." horiz-adv-x="489" d="M44 184q0 82 56 138q54 57 146 57t143 -57q55 -56 55 -138t-55 -139q-52 -55 -143 -55t-146 55q-56 57 -56 139z" />
<glyph unicode="/" horiz-adv-x="1071" d="M35 0l631 1434h370l-630 -1434h-371z" />
<glyph unicode="0" horiz-adv-x="1497" d="M66 717q0 329 176 538q179 209 506 209t503 -209q179 -209 179 -538q0 -330 -179 -539q-176 -209 -503 -209t-506 209q-176 209 -176 539zM446 717q0 -187 78 -297q77 -109 224 -109q146 0 223 109q78 110 78 297t-78 297q-77 108 -223 108q-148 0 -224 -108 q-78 -110 -78 -297z" />
<glyph unicode="1" horiz-adv-x="778" d="M61 1096l21 338h577v-1434h-372v1096h-226z" />
<glyph unicode="2" horiz-adv-x="1347" d="M76 883q-10 293 138.5 437t457.5 144q294 0 441 -127t147 -356q0 -128 -59.5 -226.5t-209.5 -201.5l-231 -158l-103 -63h588v-332h-1157v326l602 399q113 76 152 121t39 104q0 86 -54.5 132t-154.5 46q-111 0 -170.5 -60t-52.5 -185h-373z" />
<glyph unicode="3" horiz-adv-x="1333" d="M66 510h376q-7 -99 56.5 -149t177.5 -50q100 0 156.5 44.5t56.5 125.5q0 77 -55.5 123.5t-171.5 46.5q-77 0 -154 -22v262l272 205h-649v338h1055v-330l-256 -209q94 -23 162.5 -70t105.5 -109t53.5 -126.5t16.5 -134.5q0 -211 -150 -349q-149 -137 -454 -137 q-300 0 -455 140.5t-143 400.5z" />
<glyph unicode="4" horiz-adv-x="1400" d="M61 199v329l721 906h502v-1434h-375v199h-848zM457 528h452v570z" />
<glyph unicode="5" horiz-adv-x="1316" d="M66 510h374q-7 -101 51 -151t166 -50q103 0 159 49t56 142q0 198 -219 198q-146 0 -192 -73h-361v809h1063v-324h-688v-162q67 43 246 43q91 0 167.5 -17.5t130 -47.5t95.5 -72t67 -87t41.5 -97t22.5 -98.5t6 -94.5q0 -222 -147 -366q-145 -142 -453 -142 q-298 0 -447.5 137t-137.5 404z" />
<glyph unicode="6" horiz-adv-x="1308" d="M66 502q0 231 188 440l440 492h439l-400 -433q245 -9 375 -145q135 -138 135 -356q0 -236 -156 -383q-154 -148 -432 -148q-279 0 -436 148q-153 147 -153 385zM442 500q0 -89 55.5 -139t157.5 -50q99 0 155 50.5t56 138.5t-56 140t-155 52q-101 0 -157 -51.5t-56 -140.5 z" />
<glyph unicode="7" horiz-adv-x="1359" d="M59 1104v330h1276l-782 -1434h-393l614 1104h-715z" />
<glyph unicode="8" horiz-adv-x="1394" d="M96 408q0 254 230 356q-160 112 -160 299q0 184 137 292.5t393 108.5q257 0 395 -109t138 -292q0 -184 -160 -299q227 -102 227 -356q0 -204 -153 -321.5t-447 -117.5t-447 117.5t-153 321.5zM479 465q0 -81 56.5 -127.5t160.5 -46.5q107 0 163 46.5t56 127.5 q0 82 -56.5 126t-162.5 44q-104 0 -160.5 -44t-56.5 -126zM516 1022q0 -145 180 -145q91 0 135 38q48 42 48 107q0 66 -48 108q-47 41 -135 41q-89 0 -134.5 -39t-45.5 -110z" />
<glyph unicode="9" horiz-adv-x="1308" d="M66 934q0 236 153 383q156 147 436 147q279 0 432 -147q156 -147 156 -385q0 -231 -188 -440l-441 -492h-438l399 432q-242 9 -376 146q-133 139 -133 356zM442 934q0 -89 56 -141t157 -52q99 0 155 52t56 141q0 88 -56 138t-155 50q-102 0 -157.5 -50t-55.5 -138z" />
<glyph unicode=":" horiz-adv-x="489" d="M44 184q0 82 56 138q54 57 146 57t143 -57q55 -56 55 -138t-55 -139q-52 -55 -143 -55t-146 55q-56 57 -56 139zM44 900.5q0 81.5 56 137.5q55 58 146 58t143 -58q55 -56 55 -137t-55 -137q-51 -57 -143 -57q-91 0 -146 55q-56 57 -56 138.5z" />
<glyph unicode=";" horiz-adv-x="641" d="M25 -199l208 578h340l-208 -578h-340zM218 900.5q0 81.5 54 137.5q55 58 146 58t143 -58q55 -56 55 -137t-55 -137q-51 -57 -143 -57q-91 0 -146 55q-54 57 -54 138.5z" />
<glyph unicode="&#x3c;" horiz-adv-x="1411" d="M45 362v336l1321 310v-340l-776 -138l776 -137v-340z" />
<glyph unicode="=" horiz-adv-x="1488" d="M45 66v323h1399v-323h-1399zM45 676v325h1399v-325h-1399z" />
<glyph unicode="&#x3e;" horiz-adv-x="1411" d="M45 53v340l778 137l-778 138v340l1321 -310v-336z" />
<glyph unicode="?" horiz-adv-x="1349" d="M66 897q-12 285 141.5 426t478.5 141q304 0 451 -119.5t147 -334.5q0 -120 -55 -197.5t-191 -136.5l-71 -29q-76 -34 -101.5 -74t-23.5 -110h-375q-9 154 35 237q48 85 203 140l49 16q83 30 116 62t33 77q0 140 -217 140q-134 0 -197.5 -55.5t-56.5 -182.5h-366zM456 184 q0 82 54 138q54 57 145 57q93 0 144 -57q55 -56 55 -138t-55 -139q-52 -55 -144 -55q-90 0 -145 55q-54 57 -54 139z" />
<glyph unicode="@" horiz-adv-x="1331" d="M66 532q0 237 163 400q164 164 437 164q274 0 436 -162q164 -164 164 -397q0 -107 -36.5 -170.5t-101.5 -63.5q-94 0 -94 105v471h-135l-18 -95l8 -36q-89 151 -271 151q-158 0 -256 -104t-98 -263q0 -158 101 -262t270 -104q201 0 268 166v-31q0 -64 40 -97.5t106 -33.5 q70 0 116 55q-164 -256 -499 -256q-275 0 -437 162q-163 163 -163 401zM422 532q0 102 58.5 164t162.5 62q107 0 171.5 -63.5t64.5 -162.5q0 -100 -64.5 -162.5t-173.5 -62.5q-103 0 -161 61.5t-58 163.5z" />
<glyph unicode="A" horiz-adv-x="1683" d="M25 0l612 1434h410l610 -1434h-395l-76 180h-688l-76 -180h-397zM623 481h438l-219 531z" />
<glyph unicode="B" horiz-adv-x="1552" d="M117 0v1434h815q249 0 372 -104.5t123 -285.5q0 -228 -198 -319q244 -89 244 -338q0 -387 -504 -387h-852zM498 326h424q90 0 130 31t40 98t-40 98t-130 31l-424 -2v-256zM498 872h403q146 0 146 119q0 117 -146 117h-403v-236z" />
<glyph unicode="C" horiz-adv-x="1644" d="M66 717q0 324 210 534q213 213 570 213q300 0 491 -153.5t232 -425.5h-371q-82 233 -352 233q-186 0 -290.5 -109t-104.5 -292t104.5 -292.5t290.5 -109.5q270 0 352 234h371q-41 -272 -232 -426t-491 -154q-359 0 -570 211q-210 210 -210 537z" />
<glyph unicode="D" horiz-adv-x="1640" d="M117 0v1434h702q338 0 541 -197q205 -196 205 -520t-205 -520q-203 -197 -541 -197h-702zM498 336h319q174 0 268.5 102.5t94.5 278.5t-94.5 278.5t-268.5 102.5h-319v-762z" />
<glyph unicode="E" horiz-adv-x="1462" d="M117 0v1434h1237v-334h-856v-238h829v-297h-829v-231h856v-334h-1237z" />
<glyph unicode="F" horiz-adv-x="1462" d="M117 0v1434h1237v-336h-856v-297h823v-334h-823v-467h-381z" />
<glyph unicode="G" horiz-adv-x="1644" d="M66 715q0 326 210 536q213 213 566 213q290 0 470 -143.5t216 -392.5h-373q-58 190 -301 190q-190 0 -296.5 -110.5t-106.5 -298.5q0 -191 113 -301.5t333 -110.5q161 0 266 63v152h-327v285h692v-566q-241 -262 -664 -262q-376 0 -588 209q-210 210 -210 537z" />
<glyph unicode="H" horiz-adv-x="1679" d="M117 0v1434h381v-596h684v596h381v-1434h-381v518h-684v-518h-381z" />
<glyph unicode="I" horiz-adv-x="614" d="M117 0v1434h381v-1434h-381z" />
<glyph unicode="J" horiz-adv-x="1546" d="M66 625h380q0 -167 70 -238.5t232 -71.5t231.5 71.5t69.5 238.5v809h381v-809q0 -325 -167.5 -490.5t-514.5 -165.5q-682 0 -682 656z" />
<glyph unicode="K" horiz-adv-x="1687" d="M117 0v1434h375v-920l694 920h436l-545 -691l586 -743h-442l-363 465l-366 -465h-375z" />
<glyph unicode="L" horiz-adv-x="1415" d="M117 0v1434h381v-1098h852v-336h-1233z" />
<glyph unicode="M" horiz-adv-x="2129" d="M117 0v1434h622l314 -1065h24l314 1065h620v-1434h-377v1042h-26l-320 -1040h-446l-320 1040h-26v-1042h-379z" />
<glyph unicode="N" horiz-adv-x="1679" d="M117 0v1434h493l551 -996h23l-2 170v826h381v-1434h-494l-551 995h-22l2 -170v-825h-381z" />
<glyph unicode="O" horiz-adv-x="1691" d="M66 717q0 324 210 534q213 213 570 213q356 0 569 -213q211 -211 211 -534q0 -326 -211 -537t-569 -211q-359 0 -570 211q-210 210 -210 537zM451 717q0 -181 104 -291q102 -111 291 -111t291 111q104 110 104 291t-104 291q-101 110 -291 110q-189 0 -293 -110 q-102 -111 -102 -291z" />
<glyph unicode="P" horiz-adv-x="1579" d="M117 0v1434h792q288 0 430 -154t142 -403q0 -250 -142 -404q-142 -151 -430 -151h-411v-322h-381zM498 655h370q232 0 232 222q0 221 -232 221h-370v-443z" />
<glyph unicode="Q" horiz-adv-x="1691" d="M66 717q0 324 210 534q213 213 570 213q356 0 569 -213q211 -211 211 -534q0 -284 -164 -484t-448 -249v-199h-336v199q-288 50 -451 249q-161 196 -161 484zM451 717q0 -136 58.5 -233.5t168.5 -139.5v299h336v-299q110 42 168.5 139.5t58.5 233.5q0 183 -104.5 292 t-290.5 109t-290.5 -109t-104.5 -292z" />
<glyph unicode="R" horiz-adv-x="1572" d="M117 0v1434h796q280 0 424 -140.5t144 -386.5q0 -303 -213 -436l248 -471h-379l-201 385h-23h-415v-385h-381zM498 721h372q230 0 230 186q0 96 -55 143.5t-175 47.5h-372v-377z" />
<glyph unicode="S" horiz-adv-x="1490" d="M66 446h352q35 -170 321 -170q295 0 295 156q0 63 -39.5 93.5t-134.5 37.5l-285 23q-487 40 -487 432q0 224 163.5 335t510.5 111q213 0 354 -51q271 -90 287 -430h-352q-24 95 -92.5 132.5t-210.5 37.5q-150 0 -213.5 -31.5t-63.5 -99.5q0 -57 39 -87.5t125 -37.5 l283 -25q260 -20 382.5 -123.5t122.5 -306.5q0 -238 -171 -355.5t-533 -117.5h-2q-218 0 -365 49q-128 44 -200.5 147.5t-85.5 280.5z" />
<glyph unicode="T" horiz-adv-x="1499" d="M59 1098v336h1383v-336h-502v-1098h-381v1098h-500z" />
<glyph unicode="U" horiz-adv-x="1624" d="M117 645v789h381v-789q0 -330 313 -330q315 0 315 330v789h379v-789q0 -334 -168.5 -505t-525.5 -171t-525.5 171t-168.5 505z" />
<glyph unicode="V" horiz-adv-x="1683" d="M25 1434h397l420 -1012l420 1012h395l-610 -1434h-410z" />
<glyph unicode="W" horiz-adv-x="2469" d="M25 1434h395l287 -963l340 963h376l340 -963l289 963h393l-444 -1434h-426l-340 961l-338 -961h-428z" />
<glyph unicode="X" horiz-adv-x="1691" d="M25 0l565 717l-561 717h467l350 -463l348 463h469l-563 -717l565 -717h-467l-352 463l-352 -463h-469z" />
<glyph unicode="Y" horiz-adv-x="1710" d="M25 1434h401l420 -715h18l420 715h399l-639 -1082v-352h-380v352z" />
<glyph unicode="Z" horiz-adv-x="1505" d="M117 0v334l811 766h-793v334h1254v-334l-811 -766h811v-334h-1272z" />
<glyph unicode="[" horiz-adv-x="925" d="M117 -190v1826h749v-342h-368v-1142h368v-342h-749z" />
<glyph unicode="\" horiz-adv-x="1071" d="M35 1434h371l630 -1434h-370z" />
<glyph unicode="]" horiz-adv-x="925" d="M59 152h369v1142h-369v342h748v-1826h-748v342z" />
<glyph unicode="^" horiz-adv-x="1402" d="M51 719l504 715h293l504 -715l-291 -219l-361 524l-358 -524z" />
<glyph unicode="_" horiz-adv-x="950" d="M45 0h860v-324h-860v324z" />
<glyph unicode="`" horiz-adv-x="559" d="M20 1540h349l170 -338h-349z" />
<glyph unicode="a" d="M55 311q0 167 103 247.5t317 80.5h338v66q0 66 -41.5 91t-146.5 25q-95 0 -137 -21t-54 -79h-325v20q0 184 125 267q132 88 409 88q276 0 407.5 -86.5t131.5 -264.5v-745h-312l-30 109l41 81q-54 -105 -183 -165q-127 -56 -268 -56q-176 0 -275.5 88.5t-99.5 253.5z M432 332q0 -86 137 -86h11q141 0 233 69v103h-276q-105 0 -105 -86z" />
<glyph unicode="b" horiz-adv-x="1378" d="M106 0v1454h371v-487l-61 -103v-2q145 232 389 232q235 0 375 -162q143 -162 143 -400q0 -239 -143 -401q-140 -162 -375 -162q-215 0 -330 148l-6 -117h-363zM473 532q0 -106 67.5 -173.5t176.5 -67.5q108 0 174.5 67.5t66.5 173.5q0 107 -66.5 174.5t-174.5 67.5 q-109 0 -176.5 -67.5t-67.5 -174.5z" />
<glyph unicode="c" horiz-adv-x="1275" d="M55 532q0 248 156 404q157 160 438 160q250 0 400 -129q151 -130 172 -342h-363q-17 69 -72 107t-137 38q-105 0 -166 -65.5t-61 -172.5t61 -172t166 -65q82 0 137 38t72 107h363q-18 -208 -170 -342q-150 -129 -402 -129q-278 0 -436 158q-155 158 -158 405z" />
<glyph unicode="d" horiz-adv-x="1378" d="M55 532q0 235 142 400q143 162 376 162q248 0 392 -234l-62 107v487h369v-1454h-363l-4 119q-117 -150 -332 -150q-233 0 -376 162q-142 165 -142 401zM422 532q0 -107 66 -174t174 -67q110 0 177.5 67.5t67.5 173.5t-67.5 174t-177.5 68q-108 0 -174 -67.5t-66 -174.5z " />
<glyph unicode="e" d="M55 532q0 247 160 404q160 160 436 160q291 0 447 -181q135 -155 135 -402q0 -42 -4 -87h-801q41 -176 240 -176q151 0 186 92h350q-15 -143 -166 -258q-148 -115 -391 -115q-278 0 -436 158q-156 159 -156 405zM426 645h440q-23 98 -73.5 140t-141.5 42 q-187 0 -225 -182z" />
<glyph unicode="f" horiz-adv-x="987" d="M59 752v313h230v18q0 422 436 422h203v-301h-133q-75 0 -106.5 -26.5t-31.5 -96.5v-16h271v-313h-271v-752h-368v752h-230z" />
<glyph unicode="g" horiz-adv-x="1337" d="M80 641q0 214 136.5 334.5t391.5 120.5q227 0 346 -107l-4 6l49 70h332l-180 -297q14 -52 14 -127q0 -216 -138 -332t-404 -116q-15 0 -97 4l-92 -121h588q111 0 169 -51t58 -144q0 -127 -94 -194h-278l2 16q4 22 4 39q0 24 -9 37q-16 22 -67 22h-674l-47 275l158 215 q-164 114 -164 350zM426 643q0 -174 197 -174q196 0 196 174q0 168 -196 168q-197 0 -197 -168z" />
<glyph unicode="h" horiz-adv-x="1386" d="M106 0v1454h371v-522l-33 -76q43 80 94.5 131.5t128 80t177.5 28.5q217 0 325.5 -126.5t108.5 -363.5v-606h-369v539q0 235 -207 235q-112 0 -168.5 -62t-56.5 -171v-541h-371z" />
<glyph unicode="i" horiz-adv-x="583" d="M96 1374q0 80 54 133.5t143 53.5q86 0 140 -53.5t54 -133.5q0 -81 -53.5 -133.5t-140.5 -52.5q-89 0 -143 52.5t-54 133.5zM109 0v1065h368v-1065h-368z" />
<glyph unicode="j" horiz-adv-x="583" d="M96 1372q0 81 54 132.5t143 51.5q87 0 140.5 -52t53.5 -132q0 -81 -53.5 -133.5t-140.5 -52.5q-89 0 -143 52.5t-54 133.5zM106 -317v1382h369v-1382h-369z" />
<glyph unicode="k" horiz-adv-x="1433" d="M106 0v1454h371v-752l-8 -213h10l434 576h428l-407 -490l469 -575h-432l-252 317l-264 -317h-349z" />
<glyph unicode="l" horiz-adv-x="583" d="M106 0v1454h371v-1454h-371z" />
<glyph unicode="m" horiz-adv-x="2111" d="M106 0v1065h357l14 -133l-31 -72q63 116 153.5 175t227.5 59q262 0 361 -211q117 211 389 211q213 0 320.5 -127t107.5 -367v-600h-371v555q0 105 -49.5 162t-142.5 57q-96 0 -148.5 -57t-52.5 -162v-555h-371v555q0 105 -49.5 162t-142.5 57q-96 0 -148.5 -57 t-52.5 -162v-555h-371z" />
<glyph unicode="n" horiz-adv-x="1386" d="M106 0v1065h357l14 -133l-33 -76q43 80 94.5 131.5t128 80t177.5 28.5q217 0 325.5 -126.5t108.5 -363.5v-606h-369v539q0 235 -207 235q-112 0 -168.5 -62t-56.5 -171v-541h-371z" />
<glyph unicode="o" horiz-adv-x="1306" d="M55 532q0 246 162 404q165 160 436 160q277 0 437 -160q161 -154 161 -404q0 -248 -161 -405q-161 -158 -437 -158q-271 0 -436 160q-162 158 -162 403zM418 532q0 -106 63 -172q65 -65 172 -65t172 65q64 67 64 172q0 106 -64 170q-65 68 -172 68t-172 -68 q-63 -63 -63 -170z" />
<glyph unicode="p" horiz-adv-x="1378" d="M106 -295v1360h363l8 -98l-63 -107q144 234 391 234q235 0 375 -162q143 -162 143 -400q0 -239 -143 -401q-140 -162 -375 -162q-211 0 -328 144v-408h-371zM473 532q0 -106 67.5 -173.5t176.5 -67.5q108 0 174.5 67.5t66.5 173.5q0 107 -66.5 174.5t-174.5 67.5 q-109 0 -176.5 -67.5t-67.5 -174.5z" />
<glyph unicode="q" horiz-adv-x="1378" d="M55 532q0 235 142 400q143 162 376 162q248 0 392 -234l-62 107l6 98h363v-1360h-369v412q-115 -148 -330 -148q-233 0 -376 162q-142 165 -142 401zM422 532q0 -107 66 -174t174 -67q110 0 177.5 67.5t67.5 173.5t-67.5 174t-177.5 68q-108 0 -174 -67.5t-66 -174.5z " />
<glyph unicode="r" horiz-adv-x="1263" d="M106 0v1065h357l14 -133l-28 -66q60 116 142 173t210 57q189 0 287 -122t98 -341v-88h-344v26q0 203 -176 203q-189 0 -189 -217v-557h-371z" />
<glyph unicode="s" horiz-adv-x="1183" d="M55 332h336q7 -49 55 -69.5t142 -20.5q98 0 136 18t38 57q0 67 -103 76l-243 23q-350 35 -350 323q0 357 530 357q197 0 330 -64q156 -75 168 -291h-334q-18 88 -176 88t-158 -77q0 -67 102 -76l242 -23q184 -14 270 -87.5t86 -229.5q0 -367 -548 -367q-251 0 -381 83.5 t-142 279.5z" />
<glyph unicode="t" horiz-adv-x="1030" d="M59 752v313h236v369h369v-369h299v-313h-299v-299q0 -72 35 -104t110 -32h154v-327h-224q-229 0 -336.5 100t-107.5 299v363h-236z" />
<glyph unicode="u" horiz-adv-x="1386" d="M109 459v606h368v-539q0 -235 207 -235q112 0 168.5 62t56.5 171v541h371v-1065h-356l-15 133l33 76q-43 -80 -94 -131t-127.5 -80t-177.5 -29q-217 0 -325.5 126.5t-108.5 363.5z" />
<glyph unicode="v" horiz-adv-x="1316" d="M14 1065h383l254 -653h15l254 653h383l-447 -1065h-395z" />
<glyph unicode="w" horiz-adv-x="2045" d="M14 1065h381l187 -678l245 678h392l243 -678l187 678h381l-342 -1065h-418l-248 678l-246 -678h-420z" />
<glyph unicode="x" horiz-adv-x="1333" d="M25 0l432 537l-424 528h426l209 -268l206 268h426l-423 -528l432 -537h-428l-213 279l-215 -279h-428z" />
<glyph unicode="y" horiz-adv-x="1325" d="M14 1065h385l256 -657h15l256 657h385l-578 -1360h-377l123 287l-63 139z" />
<glyph unicode="z" horiz-adv-x="1163" d="M80 0v313l538 439h-526v313h991v-313l-538 -439h549v-313h-1014z" />
<glyph unicode="{" horiz-adv-x="1077" d="M59 541v366h209v729h750v-342h-369v-1142h369v-342h-750v731h-209z" />
<glyph unicode="|" horiz-adv-x="614" d="M117 -205v1843h381v-1843h-381z" />
<glyph unicode="}" horiz-adv-x="1077" d="M59 152h369v1142h-369v342h748v-729h211v-366h-211v-731h-748v342z" />
<glyph unicode="~" horiz-adv-x="1392" d="M61 383v336q170 -72 359 -72q121 0 278 49q162 52 289 52q179 0 344 -68v-336q-170 72 -358 72q-122 0 -281 -51q-161 -50 -286 -50q-180 0 -345 68z" />
<glyph unicode="&#xa1;" horiz-adv-x="632" d="M116 900.5q0 81.5 56 137.5q55 58 145 58q92 0 144 -58q55 -56 55 -137.5t-55 -138.5q-52 -55 -144 -55q-90 0 -145 55q-56 57 -56 138.5zM125 -348l10 954h359l10 -954h-379z" />
<glyph unicode="&#xa2;" horiz-adv-x="1275" d="M55 700q0 248 156 404q157 160 438 160h8l60 217l295 -76l-58 -209q115 -60 184 -164.5t83 -238.5h-363q-17 69 -72 107t-137 38q-105 0 -166 -65.5t-61 -172.5t61 -172t166 -65q82 0 137 38t72 107h363q-18 -205 -164 -336q-144 -129 -385 -135l-60 -221l-295 76l52 198 q-150 65 -231 199.5t-83 310.5z" />
<glyph unicode="&#xa3;" horiz-adv-x="1378" d="M66 111l147 264q115 -71 115 26q0 27 -17 76h-227v262l94 11q-59 145 -59 268q0 206 153 326t437 120q308 0 461 -143t141 -424h-373q7 114 -53 168.5t-168 54.5q-101 0 -160 -47.5t-59 -132.5q0 -68 49 -166h606v-297h-510v-2q0 -58 -19.5 -92t-72.5 -64q166 84 383 84 q185 0 377 -67v-336q-204 72 -400 72q-114 0 -262 -37t-246 -37q-188 0 -337 113z" />
<glyph unicode="&#xa4;" horiz-adv-x="1431" d="M55 168l138 135q-49 104 -49 229.5t49 229.5l-138 135l269 264l139 -139q115 47 252 47q144 0 254 -49l139 141l266 -264l-135 -135q49 -104 49 -229.5t-49 -229.5l135 -135l-266 -264l-139 141q-110 -49 -254 -49q-137 0 -252 47l-139 -139zM500 532q0 -97 57 -157 q60 -60 158 -60q97 0 157 60q60 63 60 157q0 96 -60 156q-59 62 -157 62q-99 0 -158 -62q-57 -57 -57 -156z" />
<glyph unicode="&#xa5;" horiz-adv-x="1710" d="M25 1434h401l420 -715h18l420 715h399l-426 -725h275v-269h-1356v269h275zM176 115v268h1356v-268h-488v-115h-380v115h-488z" />
<glyph unicode="&#xa6;" horiz-adv-x="614" d="M117 -205v862h381v-862h-381zM117 776v862h381v-862h-381z" />
<glyph unicode="&#xa7;" horiz-adv-x="1298" d="M66 725q0 168 127 242q-62 62 -62 170q0 173 137 263.5t396 90.5q242 0 371.5 -88t133.5 -283h-323q-18 49 -63 66.5t-136 17.5q-88 0 -128 -18t-40 -60q0 -64 117 -73l203 -13q226 -13 329 -92t103 -235q0 -168 -125 -244q61 -61 61 -170q0 -176 -136.5 -265t-397.5 -89 q-497 0 -506 370h324q20 -48 65 -66t133 -18t129 18.5t41 61.5q0 63 -117 72l-204 14q-226 13 -329 92.5t-103 235.5zM420 727q0 -78 108 -84l199 -14q152 -9 152 80q0 78 -109 84l-201 14q-149 12 -149 -80z" />
<glyph unicode="&#xa8;" horiz-adv-x="1038" d="M20 1376q0 76 54 127q51 51 141 51t141 -51q54 -51 54 -127t-54 -127q-51 -51 -141 -51t-141 51q-54 51 -54 127zM629 1376q0 76 54 127t140 51q89 0 142 -50.5t53 -127.5t-53 -127.5t-142 -50.5q-86 0 -140 51t-54 127z" />
<glyph unicode="&#xa9;" horiz-adv-x="1273" d="M66 922q0 230 157 387q158 155 414 155q257 0 412 -155q159 -156 159 -387q0 -233 -157 -390q-156 -153 -414 -153t-414 153q-157 157 -157 390zM242 922q0 -163 108 -271t293 -108q164 0 268.5 86t118.5 227h-256q-27 -90 -129 -90q-68 0 -108.5 43t-40.5 113 t40.5 112.5t108.5 42.5q102 0 129 -90h256q-14 141 -118.5 227t-268.5 86q-185 0 -293 -108t-108 -270z" />
<glyph unicode="&#xab;" horiz-adv-x="1648" d="M61 406v294l574 402l168 -258l-424 -291l424 -291l-168 -258zM846 406v294l573 402l168 -258l-424 -291l424 -291l-168 -258z" />
<glyph unicode="&#xac;" horiz-adv-x="1488" d="M45 629v323h1399v-848h-371v525h-1028z" />
<glyph unicode="&#xad;" horiz-adv-x="868" d="M45 373v323h778v-323h-778z" />
<glyph unicode="&#xae;" horiz-adv-x="1273" d="M66 922q0 230 157 387q158 155 414 155q257 0 412 -155q159 -156 159 -387q0 -233 -157 -390q-156 -153 -414 -153t-414 153q-157 157 -157 390zM305 565h242v180h119l102 -180h242l-129 221q129 62 129 224q0 122 -76 193t-221 71h-408v-709zM547 940v137h125 q98 0 98 -69q0 -36 -22 -52t-76 -16h-125z" />
<glyph unicode="&#xaf;" horiz-adv-x="901" d="M20 1217v323h861v-323h-861z" />
<glyph unicode="&#xb0;" horiz-adv-x="999" d="M55 1040q0 177 121 301q120 123 324 123q203 0 323 -123q121 -124 121 -301t-121 -301q-120 -123 -323 -123q-204 0 -324 123q-121 124 -121 301zM353 1040.5q0 -63.5 38 -104.5q41 -41 109 -41q67 0 108 41q38 41 38 104.5t-38 104.5q-41 41 -108 41q-68 0 -109 -41 q-38 -41 -38 -104.5z" />
<glyph unicode="&#xb1;" horiz-adv-x="1415" d="M47 158h1315v-326h-1315v326zM49 748v325h488v496h344v-496h485v-325h-483v-498h-346v498h-488z" />
<glyph unicode="&#xb4;" horiz-adv-x="559" d="M20 1202l170 338h349l-170 -338h-349z" />
<glyph unicode="&#xb6;" horiz-adv-x="1720" d="M66 717q0 320 198 518q199 199 533 199h866v-342h-193v-750h193v-342h-866q-334 0 -533 199q-198 198 -198 518zM895 342h197v750h-197v-750z" />
<glyph unicode="&#xb7;" horiz-adv-x="602" d="M102 579.5q0 82.5 54 137.5q54 57 145 57q92 0 143 -57q56 -55 56 -137.5t-56 -139.5q-52 -55 -143 -55q-90 0 -145 55q-54 57 -54 139.5z" />
<glyph unicode="&#xb8;" horiz-adv-x="495" d="M20 -233l138 262h172l-60 -105h4q88 0 144.5 -58.5t56.5 -150.5q0 -100 -62.5 -160.5t-166.5 -60.5q-116 0 -174 64l100 125q22 -19 53 -19q23 0 38.5 16t15.5 39q0 48 -56 48h-203z" />
<glyph unicode="&#xbb;" horiz-adv-x="1648" d="M61 262l424 291l-424 291l168 258l574 -402v-294l-574 -402zM846 262l426 291l-426 291l168 258l573 -402v-294l-573 -402z" />
<glyph unicode="&#xbf;" horiz-adv-x="1349" d="M66 76q0 121 55 198.5t192 135.5l70 28q76 34 102.5 76t24.5 109h373q9 -158 -37 -240q-43 -81 -201 -137l-49 -17q-83 -30 -116.5 -62.5t-33.5 -76.5q0 -139 218 -139q134 0 197.5 55t56.5 182h366q12 -285 -141 -426t-479 -141q-304 0 -451 120t-147 335zM495.5 901 q0.5 82 55.5 137q52 58 143 58q92 0 144 -58q56 -56 56 -137.5t-56 -138.5q-52 -55 -144 -55q-90 0 -145 55q-54 57 -53.5 139z" />
<glyph unicode="&#xc0;" horiz-adv-x="1683" d="M25 0l612 1434h410l610 -1434h-395l-76 180h-688l-76 -180h-397zM502 1909h348l170 -338h-348zM623 481h438l-219 531z" />
<glyph unicode="&#xc1;" horiz-adv-x="1683" d="M25 0l612 1434h410l610 -1434h-395l-76 180h-688l-76 -180h-397zM623 481h438l-219 531zM690 1571l170 338h348l-170 -338h-348z" />
<glyph unicode="&#xc2;" horiz-adv-x="1683" d="M25 0l612 1434h410l610 -1434h-395l-76 180h-688l-76 -180h-397zM410 1569l170 338h528l170 -338h-340l-94 186l-94 -186h-340zM623 481h438l-219 531z" />
<glyph unicode="&#xc3;" horiz-adv-x="1683" d="M25 0l612 1434h410l610 -1434h-395l-76 180h-688l-76 -180h-397zM381 1618v278q107 -73 250 -73q93 0 209 45q121 47 217 47q131 0 241 -72v-278q-104 73 -249 73q-88 0 -209 -47q-116 -45 -217 -45q-129 0 -242 72zM623 481h438l-219 531z" />
<glyph unicode="&#xc4;" horiz-adv-x="1683" d="M25 0l612 1434h410l610 -1434h-395l-76 180h-688l-76 -180h-397zM343 1745q0 76 54 127q51 51 142 51q90 0 141 -51q54 -51 54 -127t-54 -127q-51 -51 -141 -51q-91 0 -142 51q-54 51 -54 127zM623 481h438l-219 531zM952 1745q0 76 54.5 127t140.5 51q89 0 141.5 -50.5 t52.5 -127.5t-52.5 -127.5t-141.5 -50.5q-86 0 -140.5 51t-54.5 127z" />
<glyph unicode="&#xc5;" horiz-adv-x="1683" d="M25 0l612 1434h410l610 -1434h-395l-76 180h-688l-76 -180h-397zM623 481h438l-219 531zM623 1729q0 92 61.5 152.5t159.5 60.5t158.5 -60.5t60.5 -152.5q0 -94 -60.5 -155t-158.5 -61q-101 0 -161 61t-60 155zM784 1729q0 -58 60 -58q57 0 57 58q0 25 -15.5 40t-41.5 15 q-60 0 -60 -55z" />
<glyph unicode="&#xc6;" horiz-adv-x="2473" d="M4 0l905 1434h1456v-334h-856v-238h830v-297h-830v-231h856v-334h-1237v203h-591l-127 -203h-406zM729 512h399v637z" />
<glyph unicode="&#xc7;" horiz-adv-x="1644" d="M66 717q0 324 210 534q213 213 570 213q300 0 491 -153.5t232 -425.5h-371q-82 233 -352 233q-186 0 -290.5 -109t-104.5 -292t104.5 -292.5t290.5 -109.5q270 0 352 234h371q-37 -256 -208 -407.5t-443 -170.5l-27 -47h4q88 0 144.5 -58.5t56.5 -150.5 q0 -100 -63 -160.5t-167 -60.5q-116 0 -174 64l101 125q22 -19 53 -19q23 0 38 16t15 39q0 48 -55 48h-203l109 206q-317 30 -502 236q-182 206 -182 508z" />
<glyph unicode="&#xc8;" horiz-adv-x="1462" d="M117 0v1434h1237v-334h-856v-238h829v-297h-829v-231h856v-334h-1237zM403 1909h349l170 -338h-349z" />
<glyph unicode="&#xc9;" horiz-adv-x="1462" d="M117 0v1434h1237v-334h-856v-238h829v-297h-829v-231h856v-334h-1237zM594 1571l170 338h348l-170 -338h-348z" />
<glyph unicode="&#xca;" horiz-adv-x="1462" d="M117 0v1434h1237v-334h-856v-238h829v-297h-829v-231h856v-334h-1237zM311 1569l170 338h529l170 -338h-340l-95 186l-94 -186h-340z" />
<glyph unicode="&#xcb;" horiz-adv-x="1462" d="M117 0v1434h1237v-334h-856v-238h829v-297h-829v-231h856v-334h-1237zM247 1745q0 76 54 127q51 51 141 51q91 0 142 -51q54 -51 54 -127t-54 -127q-51 -51 -142 -51q-90 0 -141 51q-54 51 -54 127zM856 1745q0 76 54.5 127t140.5 51q89 0 141.5 -50.5t52.5 -127.5 t-52.5 -127.5t-141.5 -50.5q-86 0 -140.5 51t-54.5 127z" />
<glyph unicode="&#xcc;" horiz-adv-x="614" d="M-35 1909h348l170 -338h-348zM117 0v1434h381v-1434h-381z" />
<glyph unicode="&#xcd;" horiz-adv-x="614" d="M117 0v1434h381v-1434h-381zM156 1571l170 338h348l-170 -338h-348z" />
<glyph unicode="&#xce;" horiz-adv-x="614" d="M-127 1569l170 338h528l170 -338h-340l-94 186l-94 -186h-340zM117 0v1434h381v-1434h-381z" />
<glyph unicode="&#xcf;" horiz-adv-x="614" d="M-193 1745q0 76 54 127q51 51 141 51t141 -51q54 -51 54 -127t-54 -127q-51 -51 -141 -51t-141 51q-54 51 -54 127zM117 0v1434h381v-1434h-381zM416 1745q0 76 54 127t140 51q89 0 142 -50.5t53 -127.5t-53 -127.5t-142 -50.5q-86 0 -140 51t-54 127z" />
<glyph unicode="&#xd0;" horiz-adv-x="1619" d="M0 555v326h117v553h702q338 0 541 -197q205 -196 205 -520t-205 -520q-203 -197 -541 -197h-702v555h-117zM498 336h319q174 0 268.5 102.5t94.5 278.5t-94.5 278.5t-268.5 102.5h-319v-217h280v-326h-280v-219z" />
<glyph unicode="&#xd1;" horiz-adv-x="1679" d="M117 0v1434h493l551 -996h23l-2 170v826h381v-1434h-494l-551 995h-22l2 -170v-825h-381zM379 1618v278q107 -73 250 -73q93 0 209 45q121 47 217 47q131 0 241 -72v-278q-104 73 -249 73q-88 0 -209 -47q-116 -45 -217 -45q-129 0 -242 72z" />
<glyph unicode="&#xd2;" horiz-adv-x="1691" d="M66 717q0 324 210 534q213 213 570 213q356 0 569 -213q211 -211 211 -534q0 -326 -211 -537t-569 -211q-359 0 -570 211q-210 210 -210 537zM451 717q0 -181 104 -291q102 -111 291 -111t291 111q104 110 104 291t-104 291q-101 110 -291 110q-189 0 -293 -110 q-102 -111 -102 -291zM504 1909h348l170 -338h-348z" />
<glyph unicode="&#xd3;" horiz-adv-x="1691" d="M66 717q0 324 210 534q213 213 570 213q356 0 569 -213q211 -211 211 -534q0 -326 -211 -537t-569 -211q-359 0 -570 211q-210 210 -210 537zM451 717q0 -181 104 -291q102 -111 291 -111t291 111q104 110 104 291t-104 291q-101 110 -291 110q-189 0 -293 -110 q-102 -111 -102 -291zM694 1571l170 338h348l-170 -338h-348z" />
<glyph unicode="&#xd4;" horiz-adv-x="1691" d="M66 717q0 324 210 534q213 213 570 213q356 0 569 -213q211 -211 211 -534q0 -326 -211 -537t-569 -211q-359 0 -570 211q-210 210 -210 537zM412 1569l170 338h528l170 -338h-340l-94 186l-94 -186h-340zM451 717q0 -181 104 -291q102 -111 291 -111t291 111 q104 110 104 291t-104 291q-101 110 -291 110q-189 0 -293 -110q-102 -111 -102 -291z" />
<glyph unicode="&#xd5;" horiz-adv-x="1691" d="M66 717q0 324 210 534q213 213 570 213q356 0 569 -213q211 -211 211 -534q0 -326 -211 -537t-569 -211q-359 0 -570 211q-210 210 -210 537zM385 1618v278q107 -73 250 -73q93 0 209 45q121 47 217 47q132 0 242 -72v-278q-104 73 -250 73q-88 0 -209 -47 q-116 -45 -217 -45q-129 0 -242 72zM451 717q0 -181 104 -291q102 -111 291 -111t291 111q104 110 104 291t-104 291q-101 110 -291 110q-189 0 -293 -110q-102 -111 -102 -291z" />
<glyph unicode="&#xd6;" horiz-adv-x="1691" d="M66 717q0 324 210 534q213 213 570 213q356 0 569 -213q211 -211 211 -534q0 -326 -211 -537t-569 -211q-359 0 -570 211q-210 210 -210 537zM345 1745q0 76 54 127q51 51 142 51q90 0 141 -51q54 -51 54 -127t-54 -127q-51 -51 -141 -51q-91 0 -142 51q-54 51 -54 127z M451 717q0 -181 104 -291q102 -111 291 -111t291 111q104 110 104 291t-104 291q-101 110 -291 110q-189 0 -293 -110q-102 -111 -102 -291zM954 1745q0 76 54.5 127t140.5 51q89 0 141.5 -50.5t52.5 -127.5t-52.5 -127.5t-141.5 -50.5q-86 0 -140.5 51t-54.5 127z" />
<glyph unicode="&#xd7;" horiz-adv-x="1333" d="M25 0l432 537l-424 528h426l209 -268l206 268h426l-423 -528l432 -537h-428l-213 279l-215 -279h-428z" />
<glyph unicode="&#xd8;" horiz-adv-x="1691" d="M66 717q0 324 210 534q213 213 570 213q268 0 461 -123l114 115l164 -166l-108 -108q149 -192 149 -465q0 -326 -211 -537t-569 -211q-266 0 -459 123l-115 -115l-166 164l109 109q-149 192 -149 467zM451 717q0 -118 38 -193l553 553q-87 41 -196 41q-186 0 -290.5 -109 t-104.5 -292zM651 356q84 -41 195 -41q186 0 290.5 109.5t104.5 292.5q0 108 -37 192z" />
<glyph unicode="&#xd9;" horiz-adv-x="1624" d="M117 645v789h381v-789q0 -330 313 -330q315 0 315 330v789h379v-789q0 -334 -168.5 -505t-525.5 -171t-525.5 171t-168.5 505zM469 1909h348l170 -338h-348z" />
<glyph unicode="&#xda;" horiz-adv-x="1624" d="M117 645v789h381v-789q0 -330 313 -330q315 0 315 330v789h379v-789q0 -334 -168.5 -505t-525.5 -171t-525.5 171t-168.5 505zM659 1571l170 338h349l-170 -338h-349z" />
<glyph unicode="&#xdb;" horiz-adv-x="1624" d="M117 645v789h381v-789q0 -330 313 -330q315 0 315 330v789h379v-789q0 -334 -168.5 -505t-525.5 -171t-525.5 171t-168.5 505zM377 1569l170 338h528l170 -338h-340l-94 186l-94 -186h-340z" />
<glyph unicode="&#xdc;" horiz-adv-x="1624" d="M117 645v789h381v-789q0 -330 313 -330q315 0 315 330v789h379v-789q0 -334 -168.5 -505t-525.5 -171t-525.5 171t-168.5 505zM313 1745q0 76 54 127q51 51 141 51t141 -51q54 -51 54 -127t-54 -127q-51 -51 -141 -51t-141 51q-54 51 -54 127zM922 1745q0 76 54 127 t140 51q89 0 142 -50.5t53 -127.5t-53 -127.5t-142 -50.5q-86 0 -140 51t-54 127z" />
<glyph unicode="&#xdd;" horiz-adv-x="1710" d="M25 1434h401l420 -715h18l420 715h399l-639 -1082v-352h-380v352zM702 1571l170 338h349l-170 -338h-349z" />
<glyph unicode="&#xde;" horiz-adv-x="1568" d="M117 0v1434h381v-158h438q278 0 418 -158q139 -157 139 -401q0 -247 -139 -404q-137 -155 -418 -155h-438v-158h-381zM498 500h387q113 0 170 58t57 159t-57 159t-170 58h-387v-434z" />
<glyph unicode="&#xdf;" horiz-adv-x="1425" d="M106 0v1083q0 422 439 422h196v-301h-127q-75 0 -106 -26.5t-31 -96.5v-16h791v-324l-234 -174q175 -43 254 -166q80 -124 80 -272q0 -201 -139 -328t-422 -127h-236v310h197q223 0 223 172q0 163 -229 163h-146v252l271 193h-410v-764h-371z" />
<glyph unicode="&#xe0;" d="M55 311q0 167 103 247.5t317 80.5h338v66q0 66 -41.5 91t-146.5 25q-95 0 -137 -21t-54 -79h-325q-7 199 125 287t409 88q276 0 407.5 -86.5t131.5 -264.5v-745h-312l-30 109l41 81q-54 -105 -183 -165q-127 -56 -268 -56q-176 0 -275.5 88.5t-99.5 253.5zM303 1540h348 l170 -338h-348zM432 332q0 -86 137 -86h11q141 0 233 69v103h-276q-105 0 -105 -86z" />
<glyph unicode="&#xe1;" d="M55 311q0 167 103 247.5t317 80.5h338v66q0 66 -41.5 91t-146.5 25q-95 0 -137 -21t-54 -79h-325q-7 199 125 287t409 88q276 0 407.5 -86.5t131.5 -264.5v-745h-312l-30 109l41 81q-54 -105 -183 -165q-127 -56 -268 -56q-176 0 -275.5 88.5t-99.5 253.5zM432 332 q0 -86 137 -86h11q141 0 233 69v103h-276q-105 0 -105 -86zM492 1202l170 338h348l-170 -338h-348z" />
<glyph unicode="&#xe2;" d="M55 311q0 167 103 247.5t317 80.5h338v66q0 66 -41.5 91t-146.5 25q-95 0 -137 -21t-54 -79h-325q-7 199 125 287t409 88q276 0 407.5 -86.5t131.5 -264.5v-745h-312l-30 109l41 81q-54 -105 -183 -165q-127 -56 -268 -56q-176 0 -275.5 88.5t-99.5 253.5zM211 1200 l170 338h528l170 -338h-340l-94 186l-94 -186h-340zM432 332q0 -86 137 -86h11q141 0 233 69v103h-276q-105 0 -105 -86z" />
<glyph unicode="&#xe3;" d="M55 311q0 167 103 247.5t317 80.5h338v66q0 66 -41.5 91t-146.5 25q-95 0 -137 -21t-54 -79h-325q-7 199 125 287t409 88q276 0 407.5 -86.5t131.5 -264.5v-745h-312l-30 109l41 81q-54 -105 -183 -165q-127 -56 -268 -56q-176 0 -275.5 88.5t-99.5 253.5zM182 1249v279 q109 -74 250 -74q93 0 209 45q121 47 217 47q133 0 242 -71v-279q-106 74 -250 74q-88 0 -209 -47q-116 -45 -217 -45q-130 0 -242 71zM432 332q0 -86 137 -86h11q141 0 233 69v103h-276q-105 0 -105 -86z" />
<glyph unicode="&#xe4;" d="M55 311q0 167 103 247.5t317 80.5h338v66q0 66 -41.5 91t-146.5 25q-95 0 -137 -21t-54 -79h-325q-7 199 125 287t409 88q276 0 407.5 -86.5t131.5 -264.5v-745h-312l-30 109l41 81q-54 -105 -183 -165q-127 -56 -268 -56q-176 0 -275.5 88.5t-99.5 253.5zM145 1376 q0 76 54 127q51 51 141 51t141 -51q54 -51 54 -127t-54 -127q-51 -51 -141 -51t-141 51q-54 51 -54 127zM432 332q0 -86 137 -86h11q141 0 233 69v103h-276q-105 0 -105 -86zM754 1376q0 76 54 127t140 51q89 0 142 -50.5t53 -127.5t-53 -127.5t-142 -50.5q-86 0 -140 51 t-54 127z" />
<glyph unicode="&#xe5;" d="M55 311q0 167 103 247.5t317 80.5h338v66q0 66 -41.5 91t-146.5 25q-95 0 -137 -21t-54 -79h-325q-7 199 125 287t409 88q276 0 407.5 -86.5t131.5 -264.5v-745h-312l-30 109l41 81q-54 -105 -183 -165q-127 -56 -268 -56q-176 0 -275.5 88.5t-99.5 253.5zM424 1360 q0 92 61.5 152.5t159.5 60.5t158.5 -60.5t60.5 -152.5q0 -94 -60.5 -154.5t-158.5 -60.5q-101 0 -161 60.5t-60 154.5zM432 332q0 -86 137 -86h11q141 0 233 69v103h-276q-105 0 -105 -86zM586 1360q0 -57 59 -57q57 0 57 57q0 25 -15.5 40t-41.5 15q-59 0 -59 -55z" />
<glyph unicode="&#xe6;" horiz-adv-x="2045" d="M55 317q0 342 447 342h311v43q0 68 -41.5 93.5t-140.5 25.5q-92 0 -138 -21t-63 -79h-324q15 375 533 375q282 0 405 -99q153 99 365 99q288 0 444 -181q159 -182 132 -489h-799q41 -176 237 -176q157 0 187 92h352q-18 -146 -168 -260q-146 -113 -389 -113 q-288 0 -447 170q-167 -170 -462 -170q-211 0 -326 87t-115 261zM430 334q0 -76 121 -76q166 0 262 84v74h-289q-94 0 -94 -82zM1184 645h438q-20 96 -71.5 139t-141.5 43q-187 0 -225 -182z" />
<glyph unicode="&#xe7;" horiz-adv-x="1275" d="M55 532q0 248 156 404q157 160 438 160q250 0 400 -129q151 -130 172 -342h-363q-17 69 -72 107t-137 38q-105 0 -166 -65.5t-61 -172.5t61 -172t166 -65q82 0 137 38t72 107h363q-17 -197 -149.5 -323t-350.5 -146l-27 -47h4q88 0 144.5 -58.5t56.5 -150.5 q0 -100 -62.5 -160.5t-166.5 -60.5q-116 0 -174 64l100 125q22 -19 53 -19q23 0 38 16t15 39q0 48 -55 48h-203l109 208q-234 27 -367 181q-128 152 -131 376z" />
<glyph unicode="&#xe8;" d="M55 532q0 247 160 404q160 160 436 160q291 0 447 -181q158 -181 131 -489h-801q41 -176 240 -176q151 0 186 92h350q-15 -143 -166 -258q-148 -115 -391 -115q-278 0 -436 158q-156 159 -156 405zM303 1540h348l170 -338h-348zM426 645h440q-23 98 -73.5 140t-141.5 42 q-187 0 -225 -182z" />
<glyph unicode="&#xe9;" d="M55 532q0 247 160 404q160 160 436 160q291 0 447 -181q158 -181 131 -489h-801q41 -176 240 -176q151 0 186 92h350q-15 -143 -166 -258q-148 -115 -391 -115q-278 0 -436 158q-156 159 -156 405zM426 645h440q-23 98 -73.5 140t-141.5 42q-187 0 -225 -182zM494 1202 l170 338h348l-170 -338h-348z" />
<glyph unicode="&#xea;" d="M55 532q0 247 160 404q160 160 436 160q291 0 447 -181q158 -181 131 -489h-801q41 -176 240 -176q151 0 186 92h350q-15 -143 -166 -258q-148 -115 -391 -115q-278 0 -436 158q-156 159 -156 405zM211 1200l170 338h528l170 -338h-340l-94 186l-94 -186h-340zM426 645 h440q-23 98 -73.5 140t-141.5 42q-187 0 -225 -182z" />
<glyph unicode="&#xeb;" d="M55 532q0 247 160 404q160 160 436 160q291 0 447 -181q158 -181 131 -489h-801q41 -176 240 -176q151 0 186 92h350q-15 -143 -166 -258q-148 -115 -391 -115q-278 0 -436 158q-156 159 -156 405zM147 1376q0 76 54 127q51 51 141 51t141 -51q54 -51 54 -127t-54 -127 q-51 -51 -141 -51t-141 51q-54 51 -54 127zM426 645h440q-23 98 -73.5 140t-141.5 42q-187 0 -225 -182zM756 1376q0 76 54 127t140 51q89 0 142 -50.5t53 -127.5t-53 -127.5t-142 -50.5q-86 0 -140 51t-54 127z" />
<glyph unicode="&#xec;" horiz-adv-x="563" d="M-59 1540h348l170 -338h-348zM96 0v1065h371v-1065h-371z" />
<glyph unicode="&#xed;" horiz-adv-x="563" d="M96 0v1065h371v-1065h-371zM131 1202l170 338h348l-170 -338h-348z" />
<glyph unicode="&#xee;" horiz-adv-x="563" d="M-152 1200l170 338h529l170 -338h-340l-94 186l-95 -186h-340zM96 0v1065h371v-1065h-371z" />
<glyph unicode="&#xef;" horiz-adv-x="563" d="M-218 1376q0 76 54 127q51 51 141 51q91 0 142 -51q54 -51 54 -127t-54 -127q-51 -51 -142 -51q-90 0 -141 51q-54 51 -54 127zM96 0v1065h371v-1065h-371zM391 1376q0 76 54.5 127t140.5 51q89 0 141.5 -50.5t52.5 -127.5t-52.5 -127.5t-141.5 -50.5q-86 0 -140.5 51 t-54.5 127z" />
<glyph unicode="&#xf0;" horiz-adv-x="1318" d="M55 549q0 226 144 379q145 154 413 166l-65 82h-377v258h172l-131 163h401l129 -163h369v-258h-166l137 -177q101 -127 142 -229.5t41 -220.5q0 -248 -166 -414q-163 -166 -441 -166q-271 0 -438 164q-164 167 -164 416zM430 532q0 -99 64 -163t165 -64q102 0 166 64 q66 66 66 163q0 96 -66 162t-166 66q-99 0 -165 -66q-64 -64 -64 -162z" />
<glyph unicode="&#xf1;" horiz-adv-x="1386" d="M106 0v1065h357l14 -133l-33 -76q43 80 94.5 131.5t128 80t177.5 28.5q217 0 325.5 -126.5t108.5 -363.5v-606h-369v539q0 235 -207 235q-112 0 -168.5 -62t-56.5 -171v-541h-371zM231 1249v279q109 -74 250 -74q93 0 209 45q121 47 217 47q133 0 242 -71v-279 q-106 74 -250 74q-88 0 -209 -47q-116 -45 -217 -45q-130 0 -242 71z" />
<glyph unicode="&#xf2;" horiz-adv-x="1306" d="M55 532q0 246 162 404q165 160 436 160q277 0 437 -160q161 -154 161 -404q0 -248 -161 -405q-161 -158 -437 -158q-271 0 -436 160q-162 158 -162 403zM311 1540h348l170 -338h-348zM418 532q0 -106 63 -172q65 -65 172 -65t172 65q64 67 64 172q0 106 -64 170 q-65 68 -172 68t-172 -68q-63 -63 -63 -170z" />
<glyph unicode="&#xf3;" horiz-adv-x="1306" d="M55 532q0 246 162 404q165 160 436 160q277 0 437 -160q161 -154 161 -404q0 -248 -161 -405q-161 -158 -437 -158q-271 0 -436 160q-162 158 -162 403zM418 532q0 -106 63 -172q65 -65 172 -65t172 65q64 67 64 172q0 106 -64 170q-65 68 -172 68t-172 -68 q-63 -63 -63 -170zM502 1202l170 338h348l-170 -338h-348z" />
<glyph unicode="&#xf4;" horiz-adv-x="1306" d="M55 532q0 246 162 404q165 160 436 160q277 0 437 -160q161 -154 161 -404q0 -248 -161 -405q-161 -158 -437 -158q-271 0 -436 160q-162 158 -162 403zM219 1200l170 338h529l169 -338h-339l-95 186l-94 -186h-340zM418 532q0 -106 63 -172q65 -65 172 -65t172 65 q64 67 64 172q0 106 -64 170q-65 68 -172 68t-172 -68q-63 -63 -63 -170z" />
<glyph unicode="&#xf5;" horiz-adv-x="1306" d="M55 532q0 246 162 404q165 160 436 160q277 0 437 -160q161 -154 161 -404q0 -248 -161 -405q-161 -158 -437 -158q-271 0 -436 160q-162 158 -162 403zM193 1249v279q109 -74 249 -74q93 0 209 45q121 47 217 47q133 0 242 -71v-279q-106 74 -250 74q-88 0 -209 -47 q-116 -45 -217 -45q-129 0 -241 71zM418 532q0 -106 63 -172q65 -65 172 -65t172 65q64 67 64 172q0 106 -64 170q-65 68 -172 68t-172 -68q-63 -63 -63 -170z" />
<glyph unicode="&#xf6;" horiz-adv-x="1306" d="M55 532q0 246 162 404q165 160 436 160q277 0 437 -160q161 -154 161 -404q0 -248 -161 -405q-161 -158 -437 -158q-271 0 -436 160q-162 158 -162 403zM155 1376q0 76 54 127q51 51 141 51q91 0 142 -51q54 -51 54 -127t-54 -127q-51 -51 -142 -51q-90 0 -141 51 q-54 51 -54 127zM418 532q0 -106 63 -172q65 -65 172 -65t172 65q64 67 64 172q0 106 -64 170q-65 68 -172 68t-172 -68q-63 -63 -63 -170zM764 1376q0 76 54 127t140 51q89 0 142 -50.5t53 -127.5t-53 -127.5t-142 -50.5q-86 0 -140 51t-54 127z" />
<glyph unicode="&#xf7;" horiz-adv-x="1488" d="M45 373v323h1399v-323h-1399zM548 -7q0 79 52 134t143 55q90 0 142 -55q53 -53 53 -133q0 -79 -53 -135t-142 -56q-88 0 -141 56q-54 55 -54 134zM548 1071.5q0 79.5 54 134.5q53 56 141 56q89 0 142 -56q53 -55 53 -134t-51 -134q-52 -55 -144 -55q-90 0 -143 53 q-52 56 -52 135.5z" />
<glyph unicode="&#xf8;" horiz-adv-x="1310" d="M55 532q0 246 162 404q165 160 436 160q197 0 342 -86l68 67l137 -137l-59 -59q110 -149 110 -349q0 -248 -161 -405q-161 -158 -437 -158q-191 0 -338 84l-65 -65l-139 137l57 57q-113 146 -113 350zM418 532q0 -51 14 -86l309 310q-35 14 -88 14q-107 0 -171 -66 t-64 -172zM569 307q37 -12 84 -12q108 0 172 66t64 171q0 44 -12 84z" />
<glyph unicode="&#xf9;" horiz-adv-x="1386" d="M109 459v606h368v-539q0 -235 207 -235q112 0 168.5 62t56.5 171v541h371v-1065h-356l-15 133l33 76q-43 -80 -94 -131t-127.5 -80t-177.5 -29q-217 0 -325.5 126.5t-108.5 363.5zM350 1540h348l170 -338h-348z" />
<glyph unicode="&#xfa;" horiz-adv-x="1386" d="M109 459v606h368v-539q0 -235 207 -235q112 0 168.5 62t56.5 171v541h371v-1065h-356l-15 133l33 76q-43 -80 -94 -131t-127.5 -80t-177.5 -29q-217 0 -325.5 126.5t-108.5 363.5zM541 1202l170 338h348l-170 -338h-348z" />
<glyph unicode="&#xfb;" horiz-adv-x="1386" d="M109 459v606h368v-539q0 -235 207 -235q112 0 168.5 62t56.5 171v541h371v-1065h-356l-15 133l33 76q-43 -80 -94 -131t-127.5 -80t-177.5 -29q-217 0 -325.5 126.5t-108.5 363.5zM258 1200l170 338h528l170 -338h-340l-94 186l-94 -186h-340z" />
<glyph unicode="&#xfc;" horiz-adv-x="1386" d="M109 459v606h368v-539q0 -235 207 -235q112 0 168.5 62t56.5 171v541h371v-1065h-356l-15 133l33 76q-43 -80 -94 -131t-127.5 -80t-177.5 -29q-217 0 -325.5 126.5t-108.5 363.5zM192 1376q0 76 54 127q51 51 141 51t141 -51q54 -51 54 -127t-54 -127q-51 -51 -141 -51 t-141 51q-54 51 -54 127zM801 1376q0 76 54 127t140 51q89 0 142 -50.5t53 -127.5t-53 -127.5t-142 -50.5q-86 0 -140 51t-54 127z" />
<glyph unicode="&#xfd;" horiz-adv-x="1325" d="M14 1065h385l256 -657h15l256 657h385l-578 -1360h-377l123 287l-63 139zM510 1202l170 338h348l-170 -338h-348z" />
<glyph unicode="&#xfe;" horiz-adv-x="1378" d="M106 -295v1749h371v-487l-61 -103v-2q145 232 389 232q235 0 375 -162q143 -162 143 -400q0 -239 -143 -401q-140 -162 -375 -162q-211 0 -328 144v-408h-371zM473 532q0 -106 67.5 -173.5t176.5 -67.5q108 0 174.5 67.5t66.5 173.5q0 107 -66.5 174.5t-174.5 67.5 q-109 0 -176.5 -67.5t-67.5 -174.5z" />
<glyph unicode="&#xff;" horiz-adv-x="1325" d="M14 1065h385l256 -657h15l256 657h385l-578 -1360h-377l123 287l-63 139zM163 1376q0 76 54 127q51 51 141 51q91 0 142 -51q54 -51 54 -127t-54 -127q-51 -51 -142 -51q-90 0 -141 51q-54 51 -54 127zM772 1376q0 76 54.5 127t140.5 51q89 0 141.5 -50.5t52.5 -127.5 t-52.5 -127.5t-141.5 -50.5q-86 0 -140.5 51t-54.5 127z" />
<glyph unicode="&#x152;" horiz-adv-x="2588" d="M66 717q0 324 210 534q213 213 570 213q221 0 399 -90v60h1237v-334h-858v-238h830v-297h-830v-231h858v-334h-1237v59q-178 -90 -399 -90q-359 0 -570 211q-210 210 -210 537zM451 717q0 -181 104 -291q102 -111 291 -111t291 111q104 110 104 291t-104 291 q-101 110 -291 110q-189 0 -293 -110q-102 -111 -102 -291z" />
<glyph unicode="&#x153;" horiz-adv-x="2109" d="M55 532q0 246 162 404q165 160 436 160q245 0 410 -133q157 133 410 133q288 0 444 -181q157 -180 133 -489h-801q41 -176 238 -176q153 0 188 92h350q-18 -147 -167 -260q-146 -113 -390 -113q-250 0 -407 133q-160 -133 -408 -133q-271 0 -436 160q-162 158 -162 403z M418 532q0 -106 64 -171.5t171 -65.5q87 0 147 45t81 121q-7 71 0 143q-21 77 -80 121.5t-148 44.5q-107 0 -171 -66t-64 -172zM1247 645h439q-20 97 -70.5 139.5t-142.5 42.5q-188 0 -226 -182z" />
<glyph unicode="&#x178;" horiz-adv-x="1710" d="M25 1434h401l420 -715h18l420 715h399l-639 -1082v-352h-380v352zM356 1745q0 76 54 127q51 51 141 51t141 -51q54 -51 54 -127t-54 -127q-51 -51 -141 -51t-141 51q-54 51 -54 127zM965 1745q0 76 54 127t140 51q89 0 142 -50.5t53 -127.5t-53 -127.5t-142 -50.5 q-86 0 -140 51t-54 127z" />
<glyph unicode="&#x2c6;" horiz-adv-x="909" d="M20 1200l170 338h529l170 -338h-340l-94 186l-95 -186h-340z" />
<glyph unicode="&#x2dc;" horiz-adv-x="958" d="M20 1249v279q109 -74 250 -74q93 0 209 45q121 47 217 47q133 0 242 -71v-279q-106 74 -250 74q-88 0 -209 -47q-116 -45 -217 -45q-130 0 -242 71z" />
<glyph unicode="&#x2000;" horiz-adv-x="971" />
<glyph unicode="&#x2001;" horiz-adv-x="1942" />
<glyph unicode="&#x2002;" horiz-adv-x="971" />
<glyph unicode="&#x2003;" horiz-adv-x="1942" />
<glyph unicode="&#x2004;" horiz-adv-x="647" />
<glyph unicode="&#x2005;" horiz-adv-x="485" />
<glyph unicode="&#x2006;" horiz-adv-x="323" />
<glyph unicode="&#x2007;" horiz-adv-x="323" />
<glyph unicode="&#x2008;" horiz-adv-x="242" />
<glyph unicode="&#x2009;" horiz-adv-x="388" />
<glyph unicode="&#x200a;" horiz-adv-x="107" />
<glyph unicode="&#x2010;" horiz-adv-x="868" d="M45 373v323h778v-323h-778z" />
<glyph unicode="&#x2011;" horiz-adv-x="868" d="M45 373v323h778v-323h-778z" />
<glyph unicode="&#x2012;" horiz-adv-x="868" d="M45 373v323h778v-323h-778z" />
<glyph unicode="&#x2013;" horiz-adv-x="1560" d="M45 373v323h1471v-323h-1471z" />
<glyph unicode="&#x2014;" horiz-adv-x="2064" d="M47 373v323h1970v-323h-1970z" />
<glyph unicode="&#x2018;" horiz-adv-x="522" d="M66 1094v18q0 99 63.5 190.5t169.5 147.5l-2 -182q80 -6 130 -60t50 -129q0 -85 -56.5 -139.5t-144.5 -54.5q-92 0 -151 60.5t-59 148.5z" />
<glyph unicode="&#x2019;" horiz-adv-x="522" d="M45 1255q0 85 56.5 140t146.5 55q92 0 150.5 -60.5t58.5 -148.5v-18q0 -101 -63.5 -191.5t-170.5 -146.5l2 180q-81 7 -130.5 60.5t-49.5 129.5z" />
<glyph unicode="&#x201a;" horiz-adv-x="460" d="M25 184q0 85 56 140t146 55q92 0 150.5 -60.5t58.5 -148.5v-18q0 -102 -63 -192t-170 -146l2 182q-81 6 -130.5 59t-49.5 129z" />
<glyph unicode="&#x201c;" horiz-adv-x="1015" d="M66 1094v18q0 99 63.5 190.5t169.5 147.5l-2 -182q80 -6 130 -60t50 -129q0 -85 -56.5 -139.5t-144.5 -54.5q-92 0 -151 60.5t-59 148.5zM561 1094v18q0 99 63.5 191.5t168.5 146.5l-2 -182q80 -6 130 -60t50 -129q0 -85 -55.5 -139.5t-145.5 -54.5q-92 0 -150.5 60.5 t-58.5 148.5z" />
<glyph unicode="&#x201d;" horiz-adv-x="1015" d="M45 1255q0 85 56.5 140t146.5 55q92 0 150.5 -60.5t58.5 -148.5v-18q0 -101 -63.5 -191.5t-170.5 -146.5l2 180q-81 7 -130.5 60.5t-49.5 129.5zM541 1255q0 86 55 140.5t145 54.5q92 0 150.5 -60.5t58.5 -148.5v-18q0 -102 -63 -193t-170 -145l2 180q-81 7 -129.5 60.5 t-48.5 129.5z" />
<glyph unicode="&#x201e;" horiz-adv-x="954" d="M25 184q0 85 56 140t146 55q92 0 150.5 -60.5t58.5 -148.5v-18q0 -102 -63 -192t-170 -146l2 182q-81 6 -130.5 59t-49.5 129zM520 184q0 86 55.5 140.5t145.5 54.5q92 0 150.5 -60.5t58.5 -148.5v-18q0 -102 -63.5 -192.5t-170.5 -145.5l2 182q-80 6 -129 59t-49 129z " />
<glyph unicode="&#x2022;" horiz-adv-x="851" d="M205 575q0 90 59 152q61 64 162 64q102 0 160 -64q61 -61 61 -152q0 -89 -61 -153q-59 -62 -160 -62q-100 0 -162 62q-59 65 -59 153z" />
<glyph unicode="&#x2026;" horiz-adv-x="1480" d="M44 184q0 82 56 138q54 57 146 57t143 -57q55 -56 55 -138t-55 -139q-52 -55 -143 -55t-146 55q-56 57 -56 139zM540 184q0 82 54 138q54 57 145 57q93 0 144 -57q55 -56 55 -138t-55 -139q-52 -55 -144 -55q-90 0 -145 55q-54 57 -54 139zM1036 184q0 82 54 138 q54 57 145 57q92 0 143 -57q56 -56 56 -138t-56 -139q-52 -55 -143 -55q-90 0 -145 55q-54 57 -54 139z" />
<glyph unicode="&#x202f;" horiz-adv-x="388" />
<glyph unicode="&#x2039;" horiz-adv-x="864" d="M61 406v294l574 402l168 -258l-424 -291l424 -291l-168 -258z" />
<glyph unicode="&#x203a;" horiz-adv-x="864" d="M61 262l424 291l-424 291l168 258l574 -402v-294l-574 -402z" />
<glyph unicode="&#x205f;" horiz-adv-x="485" />
<glyph unicode="&#x20ac;" horiz-adv-x="1746" d="M66 434v258l964 -2v-256h-383q107 -119 299 -119q270 0 352 234h371q-41 -272 -232 -426t-491 -154q-274 0 -463 125q-189 127 -266 340h-151zM66 745v259h151q81 214 272 337t457 123q300 0 491 -153.5t232 -425.5h-371q-82 233 -352 233q-189 0 -297 -117h381v-256 h-964z" />
<glyph unicode="&#x2122;" horiz-adv-x="2113" d="M59 1090v208h146v136h233v-136h170v-208h-170v-172q0 -44 20.5 -63t65.5 -19h84v-213h-121q-282 0 -282 270v197h-146zM723 629v669h235v-81l-18 -68q64 168 262 168q178 0 246 -150q76 150 270 150q289 0 289 -328v-360h-233v311q0 158 -140 158q-73 0 -112 -45 t-39 -125v-299h-236v311q0 158 -135 158q-73 0 -113.5 -45t-40.5 -125v-299h-235z" />
<glyph unicode="&#x25fc;" horiz-adv-x="1064" d="M0 0v1065h1065v-1065h-1065z" />
</font>
</defs>
</svg>
