<svg width="23" height="15" viewBox="0 0 23 15" fill="none" xmlns="http://www.w3.org/2000/svg">
<path d="M6.7765 0.349976C7.4155 0.349976 8.0065 0.399976 8.5465 0.547976C9.0875 0.646976 9.5305 0.844976 9.9235 1.09198C10.3175 1.33998 10.6125 1.68598 10.8085 2.13098C11.0055 2.57598 11.1045 3.12098 11.1045 3.71398C11.1045 4.40698 10.9565 4.99998 10.6125 5.44498C10.3175 5.89098 9.8255 6.28598 9.2355 6.58298C10.0715 6.83098 10.7105 7.27598 11.1045 7.86998C11.4975 8.46298 11.7435 9.20498 11.7435 10.046C11.7435 10.739 11.5955 11.332 11.3495 11.827C11.1045 12.322 10.7105 12.767 10.2675 13.064C9.78627 13.3823 9.25432 13.6163 8.6945 13.756C8.1045 13.905 7.5145 14.004 6.9245 14.004H0.333496V0.349976H6.7765ZM6.3825 5.88998C6.9235 5.88998 7.3665 5.74198 7.7105 5.49498C8.0545 5.24798 8.2025 4.80198 8.2025 4.25798C8.2025 3.96098 8.1525 3.66498 8.0545 3.46698C7.9565 3.26898 7.8085 3.11998 7.6125 2.97198C7.4155 2.87298 7.2185 2.77398 6.9725 2.72498C6.7265 2.67498 6.4815 2.67498 6.1855 2.67498H3.3335V5.89098H6.3835L6.3825 5.88998ZM6.5305 11.728C6.8255 11.728 7.1205 11.678 7.3665 11.629C7.6125 11.579 7.8585 11.481 8.0545 11.332C8.25488 11.1872 8.42252 11.0019 8.5465 10.788C8.6445 10.541 8.7435 10.244 8.7435 9.89798C8.7435 9.20498 8.5465 8.70998 8.1535 8.36398C7.7595 8.06698 7.2185 7.91898 6.5795 7.91898H3.3335V11.729L6.5305 11.728ZM16.0225 11.678C16.4155 12.074 17.0055 12.272 17.7925 12.272C18.3335 12.272 18.8255 12.124 19.2185 11.877C19.6125 11.58 19.8585 11.283 19.9565 10.987H22.3665C21.9725 12.173 21.3825 13.014 20.5965 13.559C19.8085 14.053 18.8745 14.35 17.7435 14.35C17.0199 14.3522 16.3023 14.2179 15.6285 13.954C15.0222 13.7266 14.4815 13.3528 14.0545 12.866C13.5978 12.4106 13.2602 11.8497 13.0715 11.233C12.8255 10.59 12.7265 9.89798 12.7265 9.10598C12.7265 8.36398 12.8255 7.67198 13.0715 7.02798C13.3084 6.40834 13.6587 5.83828 14.1045 5.34698C14.5536 4.88582 15.0878 4.51601 15.6775 4.25798C16.3342 3.99404 17.0357 3.85957 17.7435 3.86198C18.5795 3.86198 19.3175 4.01098 19.9565 4.35698C20.5965 4.70298 21.0875 5.09898 21.4805 5.69298C21.8745 6.23698 22.1705 6.87998 22.3665 7.57298C22.4645 8.26498 22.5135 8.95798 22.4645 9.74898H15.3335C15.3335 10.541 15.6285 11.283 16.0225 11.679V11.678ZM19.1205 6.48398C18.7765 6.13798 18.2355 5.93998 17.5955 5.93998C17.1535 5.93998 16.8085 6.03998 16.5135 6.18798C16.2185 6.33598 16.0225 6.53398 15.8255 6.73198C15.6442 6.92314 15.524 7.1641 15.4805 7.42398C15.4315 7.67198 15.3825 7.86998 15.3825 8.06698H19.8085C19.7105 7.32498 19.4645 6.83098 19.1205 6.48398ZM14.7925 1.28998H20.3005V2.62598H14.7935V1.28998H14.7925Z" fill="#F5F5F7"/>
</svg>
