<svg width="21" height="16" viewBox="0 0 21 16" fill="none" xmlns="http://www.w3.org/2000/svg">
<path d="M18.3335 0H2.3335C1.2335 0 0.343496 0.9 0.343496 2L0.333496 14C0.333496 15.1 1.2335 16 2.3335 16H18.3335C19.4335 16 20.3335 15.1 20.3335 14V2C20.3335 0.9 19.4335 0 18.3335 0ZM17.9335 4.25L10.8635 8.67C10.5435 8.87 10.1235 8.87 9.8035 8.67L2.7335 4.25C2.63322 4.19371 2.54542 4.11766 2.47538 4.02645C2.40535 3.93525 2.35456 3.83078 2.32607 3.71937C2.29758 3.60796 2.292 3.49194 2.30965 3.37831C2.32731 3.26468 2.36783 3.15581 2.42878 3.0583C2.48972 2.96079 2.56982 2.87666 2.66422 2.811C2.75862 2.74533 2.86537 2.69951 2.97799 2.6763C3.09062 2.65309 3.20678 2.65297 3.31945 2.67595C3.43212 2.69893 3.53896 2.74453 3.6335 2.81L10.3335 7L17.0335 2.81C17.128 2.74453 17.2349 2.69893 17.3475 2.67595C17.4602 2.65297 17.5764 2.65309 17.689 2.6763C17.8016 2.69951 17.9084 2.74533 18.0028 2.811C18.0972 2.87666 18.1773 2.96079 18.2382 3.0583C18.2992 3.15581 18.3397 3.26468 18.3573 3.37831C18.375 3.49194 18.3694 3.60796 18.3409 3.71937C18.3124 3.83078 18.2616 3.93525 18.1916 4.02645C18.1216 4.11766 18.0338 4.19371 17.9335 4.25Z" fill="#F5F5F7"/>
</svg>
