<svg width="19" height="18" viewBox="0 0 19 18" fill="none" xmlns="http://www.w3.org/2000/svg">
<path d="M2.4935 4.33501C3.6935 4.33501 4.6535 3.36001 4.6535 2.17501C4.6535 0.990015 3.6785 0.0150146 2.4935 0.0150146C1.3085 0.0150146 0.333496 0.990015 0.333496 2.17501C0.333496 3.36001 1.3085 4.33501 2.4935 4.33501ZM6.7085 5.97002V18H10.4285V12.06C10.4285 10.485 10.7285 8.97002 12.6635 8.97002C14.5985 8.97002 14.5985 10.77 14.5985 12.15V18H18.3335V11.4C18.3335 8.16002 17.6435 5.67002 13.8635 5.67002C12.0485 5.67002 10.8335 6.66002 10.3385 7.60502H10.2935V5.95501H6.7235L6.7085 5.97002ZM0.633496 5.97002H4.3685V18H0.633496V5.97002Z" fill="#F5F5F7"/>
</svg>
