<svg width="89" height="36" viewBox="0 0 89 36" fill="none" xmlns="http://www.w3.org/2000/svg">
<path d="M4.45277 17H2.47647V1.45604H5.00791L14.6008 14.6462H14.7562L14.734 12.1148V1.45604H16.7103V17H14.1788L4.58601 3.80984H4.43057L4.45277 6.34129V17ZM18.7657 1.6781C18.7657 1.05634 19.1876 0.590022 19.8982 0.590022C20.6088 0.590022 21.0307 1.05634 21.0307 1.6781C21.0307 2.27765 20.6088 2.74397 19.8982 2.74397C19.1876 2.74397 18.7657 2.27765 18.7657 1.6781ZM20.853 17H18.9211V5.45306H20.853V17ZM30.0233 10.9823L35.4859 17H33.1765L28.913 12.2702L24.8272 17H22.9841V1.23399H24.916V12.7587L24.8716 14.4463H24.9382L26.2705 12.7809L32.5325 5.45306H34.7975L30.0233 10.9823ZM36.24 1.6781C36.24 1.05634 36.6619 0.590022 37.3725 0.590022C38.0831 0.590022 38.505 1.05634 38.505 1.6781C38.505 2.27765 38.0831 2.74397 37.3725 2.74397C36.6619 2.74397 36.24 2.27765 36.24 1.6781ZM38.3273 17H36.3954V5.45306H38.3273V17ZM47.3643 5.45306V7.14069H44.2111V13.3583C44.2111 14.7572 44.7441 15.3568 46.2318 15.3568H47.3643V17.111H45.8766C43.2785 17.111 42.257 15.8675 42.257 13.4471V7.14069H39.7478V5.45306H42.257V1.45604H44.2111V5.45306H47.3643ZM53.8418 5.11998C57.639 5.11998 59.26 6.36349 59.26 8.78391V17H57.5945L57.3947 15.6455L57.5945 15.1569C56.24 16.6003 54.4191 17.3331 52.1097 17.3331C49.3562 17.3331 47.9573 16.0674 47.9573 13.758C47.9573 11.5596 49.2674 10.4715 51.8655 10.4715H57.3059V8.98376C57.3059 7.36275 56.351 6.62996 53.8418 6.62996C51.4658 6.62996 50.5554 7.25172 50.4665 8.40641H48.7123C48.7123 5.78615 51.0439 5.11998 53.8418 5.11998ZM52.465 15.8009H52.8647C53.7308 15.8009 54.5968 15.6455 55.4184 15.3124C56.24 14.9793 56.884 14.6018 57.3059 14.1355V11.7817H52.1764C50.6442 11.7817 49.8892 12.4256 49.8892 13.6914C49.8892 15.0903 50.7552 15.8009 52.465 15.8009Z" fill="#F5F5F7"/>
<path d="M8.4942 35.4328H8.472C4.29733 35.4328 2.12118 33.9894 1.92133 31.1249H3.7644C4.14189 33.079 5.89614 33.7673 8.71626 33.7673C11.9361 33.7673 13.5349 32.7459 13.5349 30.703C13.5349 28.9043 12.4468 28.3047 9.69331 28.0161L7.58377 27.794C4.00866 27.4387 2.21 26.2174 2.21 23.5527C2.21 20.666 4.40836 19.2226 8.80508 19.2226C12.9131 19.2226 15.0671 20.666 15.2669 23.5305H13.4239C13.0908 21.7763 11.5142 20.8881 8.67185 20.8881C5.7185 20.8881 4.23072 21.7763 4.23072 23.5527C4.23072 25.2626 5.45203 25.8621 8.18332 26.1508L10.2707 26.3506C13.9124 26.7059 15.5556 27.9272 15.5556 30.703C15.5556 33.8562 13.2018 35.4328 8.4942 35.4328ZM22.9265 35.4328C21.039 35.4328 19.529 34.8554 18.3965 33.6785C17.264 32.5016 16.7089 31.0582 16.7089 29.3262C16.7089 27.572 17.264 26.1286 18.3743 24.9739C19.5068 23.797 21.0168 23.2196 22.9265 23.2196C24.8362 23.2196 26.3462 23.797 27.4786 24.9739C28.6111 26.1508 29.1663 27.5942 29.1663 29.3262C29.1663 31.0582 28.6111 32.5016 27.4786 33.6785C26.3462 34.8554 24.8362 35.4328 22.9265 35.4328ZM22.9265 33.7007C24.281 33.7007 25.3247 33.301 26.1019 32.5016C26.8791 31.68 27.2566 30.6363 27.2566 29.3262C27.2566 28.0161 26.8791 26.9724 26.1019 26.173C25.3247 25.3514 24.281 24.9517 22.9265 24.9517C20.2396 24.9517 18.5964 26.7281 18.5964 29.3262C18.5964 31.9021 20.2618 33.7007 22.9265 33.7007ZM32.7067 35.0997H30.7748V19.3337H32.7067V35.0997ZM40.5149 35.4328C38.6274 35.4328 37.1175 34.8554 35.985 33.6785C34.8525 32.5016 34.2973 31.0582 34.2973 29.3262C34.2973 27.572 34.8525 26.1286 35.9628 24.9739C37.0953 23.797 38.6052 23.2196 40.5149 23.2196C42.4246 23.2196 43.9346 23.797 45.0671 24.9739C46.1996 26.1508 46.7547 27.5942 46.7547 29.3262C46.7547 31.0582 46.1996 32.5016 45.0671 33.6785C43.9346 34.8554 42.4246 35.4328 40.5149 35.4328ZM40.5149 33.7007C41.8695 33.7007 42.9131 33.301 43.6903 32.5016C44.4675 31.68 44.845 30.6363 44.845 29.3262C44.845 28.0161 44.4675 26.9724 43.6903 26.173C42.9131 25.3514 41.8695 24.9517 40.5149 24.9517C37.828 24.9517 36.1848 26.7281 36.1848 29.3262C36.1848 31.9021 37.8502 33.7007 40.5149 33.7007ZM53.2585 35.0997H51.2822L46.0195 23.5527H48.018L52.2371 32.9235H52.3037L56.5228 23.5527H58.5213L53.2585 35.0997ZM59.5944 19.7778C59.5944 19.156 60.0163 18.6897 60.7269 18.6897C61.4375 18.6897 61.8594 19.156 61.8594 19.7778C61.8594 20.3773 61.4375 20.8436 60.7269 20.8436C60.0163 20.8436 59.5944 20.3773 59.5944 19.7778ZM61.6818 35.0997H59.7499V23.5527H61.6818V35.0997ZM69.5974 35.4328C67.7099 35.4328 66.1999 34.8554 65.0674 33.6785C63.9349 32.5016 63.3798 31.0582 63.3798 29.3262C63.3798 27.572 63.9349 26.1286 65.0452 24.9739C66.1777 23.797 67.6877 23.2196 69.5974 23.2196C71.5071 23.2196 73.0171 23.797 74.1496 24.9739C75.282 26.1508 75.8372 27.5942 75.8372 29.3262C75.8372 31.0582 75.282 32.5016 74.1496 33.6785C73.0171 34.8554 71.5071 35.4328 69.5974 35.4328ZM69.5974 33.7007C70.9519 33.7007 71.9956 33.301 72.7728 32.5016C73.55 31.68 73.9275 30.6363 73.9275 29.3262C73.9275 28.0161 73.55 26.9724 72.7728 26.173C71.9956 25.3514 70.9519 24.9517 69.5974 24.9517C66.9105 24.9517 65.2673 26.7281 65.2673 29.3262C65.2673 31.9021 66.9327 33.7007 69.5974 33.7007ZM82.341 35.0997H80.3647L75.102 23.5527H77.1005L81.3195 32.9235H81.3862L85.6052 23.5527H87.6037L82.341 35.0997Z" fill="#F5F5F7"/>
</svg>
